<svg xmlns="http://www.w3.org/2000/svg" viewBox="0 0 753.43 753.43">
  <defs>
    <style>
      .f2f72cfe-2e10-4d80-bb62-ec0b6305b985 {
        fill: #ffc947;
      }

      .fbf40c8a-fb39-422f-b568-0310eb20de0b {
        fill: #ffe555;
      }

      .e03b83b2-0488-439d-9b06-01c69520d5e6 {
        fill: #d4d971;
      }

      .b0fe6cde-db43-4197-a0d5-8b029d7b71c0 {
        fill: #c69359;
      }

      .a31e2795-b24b-4f52-b65e-4b654f0e29d6 {
        fill: #e39242;
      }

      .b1241c3c-81cd-46a8-b091-3fc0a7bdd8f8 {
        fill: #ff902a;
      }

      .eb8de98b-531f-448e-a8da-1a868f8c6fbb {
        fill: #ff9e31;
      }

      .f09eb3da-af68-447d-a7af-22b1f09f4da6 {
        fill: #55b6c6;
      }

      .b3bacea7-0c38-4292-baf8-a1b9ff293fd0 {
        fill: #5599b8;
      }

      .a8d44489-0365-4c45-a678-5fb931d944ad {
        fill: #2baae3;
      }

      .acd50c12-1cdd-4392-9e18-88add9116ab9 {
        fill: #fff;
      }
    </style>
  </defs>
  <title>Diagramm Fabian</title>
  <g id="e759225f-7fa1-422c-8ea2-711bfdd19e91" data-name="Ebene 2">
    <g id="e1341a47-5ba7-49b5-8c86-700421e2763c" data-name="Ebene 1">
      <g id="b0511f41-9dd9-4090-87e3-7c8252f2cc71" data-name="Diagramm Fabian">
        <g id="e5350bad-c6fa-40ff-9cf9-954fec8a1662" data-name="Diagramm">
          <g id="bc3e3df7-119d-43a2-bb84-e5086f9ce69e" data-name="Farbige Flächenaufteilung">
            <path class="f2f72cfe-2e10-4d80-bb62-ec0b6305b985" d="M376.7,657.89h-1c-.81,0-1.61,0-2.42,0A281.25,281.25,0,0,1,133.72,518.49L53.66,564.71l-.44.26-.3.17A376.29,376.29,0,0,0,183.14,697.36l3.61,2.16c.89.53,1.79,1.06,2.69,1.57a373.15,373.15,0,0,0,186.27,50.58v-.52h1V657.89Z"/>
            <path class="fbf40c8a-fb39-422f-b568-0310eb20de0b" d="M375.23,376.77h0l-.5-.29-.77-.44-.21-.12-2.89-1.67h0L133.24,237.08l0,0-.75-.44a279.42,279.42,0,0,0-32.72,89.84l0,.16c-.11.59-.22,1.21-.31,1.8l0,.17a282.26,282.26,0,0,0,33.09,187.75c.08.14.16.29.25.43.25.44.5.88.76,1.31l.25.42A281.25,281.25,0,0,0,373.29,657.85c.81,0,1.61,0,2.42,0V377.05Z"/>
            <path class="e03b83b2-0488-439d-9b06-01c69520d5e6" d="M99.4,328.41c.09-.59.2-1.21.31-1.8l0-.16a279.42,279.42,0,0,1,32.72-89.84l.75.44.25-.44-.75-.44L52.74,190c-.09.13-.17.28-.25.42l-.53-.29-.22-.13c-22.63,39.37-37.1,78.35-44.29,120.15l.85.16h.12c-.12.66-.23,1.32-.33,2l-.13,0-.84-.14,0,.18A389.9,389.9,0,0,0,2,376.51,373,373,0,0,0,51.65,563l.31-.17.44-.27.25.44,80.06-46.23c-.09-.14-.17-.29-.25-.43A282.26,282.26,0,0,1,99.37,328.58Z"/>
            <path class="b0fe6cde-db43-4197-a0d5-8b029d7b71c0" d="M701.89,190.46,622,236.61a282.24,282.24,0,0,1,33.09,187.74l90.82,16A373.12,373.12,0,0,0,701.89,190.46Z"/>
            <path class="a31e2795-b24b-4f52-b65e-4b654f0e29d6" d="M745.53,442.34l-90.82-16a279.42,279.42,0,0,1-32.75,90l-.25.43h0c-.25.44-.5.87-.76,1.3-.08.14-.16.28-.25.42a282.57,282.57,0,0,1-61.33,72.92l59.56,71,.41.5a372.21,372.21,0,0,0,82.39-98.19c.33-.59.67-1.16,1-1.74l-.76-.43a376.58,376.58,0,0,0,43.53-120Z"/>
            <path class="b1241c3c-81cd-46a8-b091-3fc0a7bdd8f8" d="M618.7,662.13l-1.53,1.28h0L557.83,592.7a280.28,280.28,0,0,1-179.12,65.18v92.29h-1v2h1c1.17,0,2.32,0,3.47,0h.73l1.56,0,2.12,0h1l2,0,1.77-.06.57,0,1.7,0,.78,0,1.05,0,1.19,0,.43,0c.18,0,.37,0,.51,0,2-.08,3.92-.19,5.84-.31,1,0,1.94-.11,2.9-.18l3.07-.22.7-.06h.17l.29,0h0l.22,0,2.53-.21c.21,0,.41,0,.65,0l1.77-.17.93-.08.44,0,.66-.07c.91-.08,1.8-.17,2.69-.27l.68-.07.63-.07,1.79-.19,2.27-.27H426l1.59-.19,3.43-.45,1.15-.16c1.57-.22,3.13-.44,4.67-.68l1.26-.19,1.13-.17.18,0,.16,0,1.75-.28c.27,0,.55-.08.77-.13l3.44-.58,1.48-.26,5.47-1,1.37-.27,1.58-.32,1.38-.29.78-.17.34-.07c.69-.15,1.39-.29,2.07-.45l3.35-.75c.64-.14,1.29-.29,1.88-.45l.72-.16.29-.07.48-.12,2.49-.6.19-.05,5.64-1.46,3-.82,3-.83.47-.14,2.22-.65,1.39-.41,1.37-.42,3.73-1.16,3.6-1.16,1.38-.47,2.29-.77,1.85-.64.89-.31,1.23-.43.44-.16.91-.33.71-.25,1.43-.52,1.19-.44.42-.16c1-.35,1.9-.71,2.84-1.08.66-.24,1.31-.49,2-.76l.11,0c1-.39,2-.81,3-1.2.2-.07.38-.14.53-.21l.1,0c.67-.27,1.34-.54,2-.82s1.45-.59,2.16-.89l2-.85c.52-.21,1-.44,1.53-.65l.64-.28c.3-.12.6-.26.89-.39l.87-.37,1.08-.47.1-.05.32-.14,3.55-1.59L533,718.8l2.76-1.29.31-.15.24-.12c1.34-.63,2.68-1.28,4-1.94l.22-.11L541,715l.62-.3.26-.13.23-.11.5-.25.53-.27.69-.35,2.32-1.17.4-.2c.9-.47,1.81-.93,2.7-1.41l2.26-1.18,2.1-1.12,3.49-1.89,2.57-1.42.49-.28c.86-.47,1.7-1,2.56-1.44l.79-.45c.67-.38,1.35-.76,2-1.15A380,380,0,0,0,618.45,665l1.54-1.29Z"/>
            <path class="eb8de98b-531f-448e-a8da-1a868f8c6fbb" d="M654.08,424.18l1,.17A282.24,282.24,0,0,0,622,236.61l-.75.43h0L380.59,376l-.88.51-.47.27,0,0,0,0-.46.27V657.88A280.28,280.28,0,0,0,557.83,592.7l-.41-.5c.32-.25.64-.52,1-.79s.39-.33.58-.5l.42.5A282.53,282.53,0,0,0,620.7,518.5h0l.5-.87-.75-.43.51-.87c.08-.13.16-.29.24-.43l.76.43a279.42,279.42,0,0,0,32.75-90l-1-.18c.11-.58.22-1.2.31-1.8ZM620,518.07h0l.24-.41Z"/>
            <path class="f09eb3da-af68-447d-a7af-22b1f09f4da6" d="M375.71,1.78h0V1.26a373.28,373.28,0,0,0-199.44,58.6l-1.62,1a372.59,372.59,0,0,0-37.47,27.37l.11.13.3.35L136.05,90l-.3-.35-.11-.14c-.2.16-.39.34-.59.49A373.69,373.69,0,0,0,53,187.84l.22.13.52.3h0l80,46.18a282.94,282.94,0,0,1,61.33-72.92c.2-.15.39-.33.59-.49l1-.78.59-.5A280.23,280.23,0,0,1,373.52,95.09h3a.34.34,0,0,0,.1,0s0,0,0,0,0,0,0,0h0V1.77Z"/>
            <path class="b3bacea7-0c38-4292-baf8-a1b9ff293fd0" d="M701.39,187.86a377.48,377.48,0,0,0-49.87-67.93c-.93-1-1.85-2-2.8-3l-3-3.06s-.08-.09-.13-.13l-.12-.12c-.91-.93-1.82-1.84-2.74-2.77q-3-3-6.09-5.93c-1-1-2-1.88-3-2.82A378.16,378.16,0,0,0,565,52,373,373,0,0,0,378.71,1.77h-1v93.3h1A281.21,281.21,0,0,1,620,234.89l.75-.44a4.6,4.6,0,0,1,.25.44l79.94-46.16.75-.44C701.56,188.15,701.47,188,701.39,187.86Z"/>
            <path class="a8d44489-0365-4c45-a678-5fb931d944ad" d="M378.71,95.08h-2s0,0,0,0,0,0,0,0a.34.34,0,0,1-.1,0h-.28s0,0,0,0h-2.69a280.23,280.23,0,0,0-176.34,64.67l-.59.5-1,.78c-.2.16-.39.34-.59.49a282.94,282.94,0,0,0-61.33,72.92l.75.44a3.48,3.48,0,0,0-.25.43L372.3,372.77l1.93,1.12h0l.71.41.47.28.1.06h0l.17.09h0l.16.09.75.43.09.06,0,0h0l.17-.1.27-.15.4-.23h0l.1-.05,1-.58L620,234.89A281.21,281.21,0,0,0,378.71,95.08Z"/>
          </g>
          <g id="b5124ce1-a0ec-4316-9aae-8a147441ba2d" data-name="Weiße Konturflächen">
            <polygon class="b1241c3c-81cd-46a8-b091-3fc0a7bdd8f8" points="618.35 663.14 618.35 663.14 618.35 663.14 618.35 663.14"/>
            <path class="acd50c12-1cdd-4392-9e18-88add9116ab9" d="M703.78,189.62l-2.59,1.49L622.57,236.5,620,238,380.56,376.22l-1.52.88-.82.47h0l-1.65.95-.05,0h0l-1-1.66-.08-.14L375,376l1.6-.92L618.47,235.41l2.6-1.5,78.61-45.39,2.6-1.5C702.79,187.88,703.29,188.75,703.78,189.62Z"/>
            <polygon class="acd50c12-1cdd-4392-9e18-88add9116ab9" points="744.55 443.22 655.11 427.51 655.11 427.5 652.15 426.99 652.67 424.03 655.62 424.55 745.07 440.26 744.55 443.22"/>
            <polygon class="acd50c12-1cdd-4392-9e18-88add9116ab9" points="615.81 663.97 557.45 594.41 555.52 592.11 557.81 590.18 559.74 592.48 618.1 662.04 615.81 663.97"/>
            <path class="acd50c12-1cdd-4392-9e18-88add9116ab9" d="M378.22,377.57V753.42h-3V377.58a.61.61,0,0,1,0-.14,0,0,0,0,1,0,0,1.34,1.34,0,0,1,.23-.65,1.12,1.12,0,0,1,.37-.38s0,0,0,0a1.49,1.49,0,0,1,.86-.27l.22,0a1.67,1.67,0,0,1,1.22,1.09A1.21,1.21,0,0,1,378.22,377.57Z"/>
            <path class="acd50c12-1cdd-4392-9e18-88add9116ab9" d="M376.62,375l-.76,1.32s0,0,0,0l-.29.52-.32.54-.11.2L133.43,238.05h0l-2.59-1.49L52.23,191.14l-2.6-1.5c.5-.87,1-1.73,1.51-2.59l2.59,1.5L132.34,234l2.59,1.5L376.61,375Z"/>
            <path class="acd50c12-1cdd-4392-9e18-88add9116ab9" d="M703.78,189.62l-2.59,1.49L622.57,236.5,620,238,380.56,376.22l-1.52.88-.82.47h0l-1.65.95-.05,0h0l-1-1.66-.08-.14L375,376l1.6-.92L618.47,235.41l2.6-1.5,78.61-45.39,2.6-1.5C702.79,187.88,703.29,188.75,703.78,189.62Z"/>
            <path class="acd50c12-1cdd-4392-9e18-88add9116ab9" d="M378.22,377.57V753.42h-3V377.58a.61.61,0,0,1,0-.14,0,0,0,0,1,0,0,1.34,1.34,0,0,1,.23-.65,1.12,1.12,0,0,1,.37-.38s0,0,0,0a1.49,1.49,0,0,1,.86-.27l.22,0a1.67,1.67,0,0,1,1.22,1.09A1.21,1.21,0,0,1,378.22,377.57Z"/>
            <path class="acd50c12-1cdd-4392-9e18-88add9116ab9" d="M378.22,0V95.53h-3V0h3Z"/>
            <path class="acd50c12-1cdd-4392-9e18-88add9116ab9" d="M703.78,189.62l-2.59,1.49L622.57,236.5,620,238,380.56,376.22l-1.52.88-.82.47h0l-1.65.95-.05,0h0l-1-1.66-.08-.14L375,376l1.6-.92L618.47,235.41l2.6-1.5,78.61-45.39,2.6-1.5C702.79,187.88,703.29,188.75,703.78,189.62Z"/>
            <path class="acd50c12-1cdd-4392-9e18-88add9116ab9" d="M134.16,518.84l-1.64.95L53.85,565.07l-2.6,1.5c-.51-.86-1-1.72-1.51-2.59l2.6-1.5L131,517.19l1.65-1,1,1.74Z"/>
            <path class="acd50c12-1cdd-4392-9e18-88add9116ab9" d="M723.83,230.08a376.62,376.62,0,0,0-20.05-40.46c-.49-.87-1-1.74-1.5-2.6A376.3,376.3,0,0,0,378.22,0h-3a377.29,377.29,0,0,0-324.08,187c-.51.86-1,1.72-1.51,2.59a380.81,380.81,0,0,0-20,40.44A376.74,376.74,0,0,0,49.74,564c.5.87,1,1.73,1.51,2.59a376.21,376.21,0,0,0,324,186.85h3a375.29,375.29,0,0,0,239.52-87.15l2.29-1.93Q632,654.25,643.1,643.1A375.84,375.84,0,0,0,747.51,443.74c.18-1,.35-2,.52-3a380,380,0,0,0,5.4-64.06A374.46,374.46,0,0,0,723.83,230.08Zm21.24,210.18c-.16,1-.34,2-.52,3A372.67,372.67,0,0,1,641,641Q629.92,652,618.1,662c-.76.66-1.52,1.3-2.29,1.93a372.23,372.23,0,0,1-237.59,86.45h-3A374.2,374.2,0,0,1,53.85,565.07c-.52-.86-1-1.72-1.51-2.59a373.69,373.69,0,0,1-.11-371.34c.49-.87,1-1.73,1.5-2.59A373.28,373.28,0,0,1,375.22,3h3A374.31,374.31,0,0,1,699.68,188.52c.51.86,1,1.72,1.51,2.59a375.62,375.62,0,0,1,43.88,249.15Z"/>
            <path class="acd50c12-1cdd-4392-9e18-88add9116ab9" d="M622.57,236.5c-.49-.87-1-1.73-1.5-2.59a284.22,284.22,0,0,0-44.3-57.24A281,281,0,0,0,378.22,93.82h-3a281,281,0,0,0-198.55,82.85A284.33,284.33,0,0,0,132.34,234c-.51.86-1,1.73-1.5,2.6A283.81,283.81,0,0,0,131,517.19c.49.87,1,1.74,1.51,2.6a284.2,284.2,0,0,0,44.15,57,281,281,0,0,0,198.55,82.85h3a280.75,280.75,0,0,0,179.23-65.21c.77-.63,1.53-1.28,2.29-1.93q8.78-7.46,17-15.71a280.84,280.84,0,0,0,78.34-149.26h0c.18-1,.35-2,.51-2.95a285.27,285.27,0,0,0,4-47.83A281.15,281.15,0,0,0,622.57,236.5ZM652.67,424c-.16,1-.34,2-.52,3a277.89,277.89,0,0,1-77.51,147.66q-8.14,8.15-16.83,15.53l-2.29,1.93a277.74,277.74,0,0,1-177.3,64.51h-3a278,278,0,0,1-196.43-82,281.45,281.45,0,0,1-44.18-57.21,280.85,280.85,0,0,1-1.18-279.39h0c.49-.87,1-1.73,1.5-2.59a281.9,281.9,0,0,1,43.86-56.66,279.92,279.92,0,0,1,395.85,0,281.15,281.15,0,0,1,43.83,56.62c.51.86,1,1.72,1.5,2.59a278.28,278.28,0,0,1,36.66,138.72A283.37,283.37,0,0,1,652.67,424Z"/>
          </g>
        </g>
        <g id="a5bfb662-e764-4586-8a52-ad9cfbb8e6d9" data-name="Titel">
          <g id="e446dd83-41bd-40d4-9c6e-b281e433d5d6" data-name="Kleine Titel">
            <g>
              <path class="acd50c12-1cdd-4392-9e18-88add9116ab9" d="M707.5,242.3l-9.67,4-.9-2.2,9.67-4Z"/>
              <path class="acd50c12-1cdd-4392-9e18-88add9116ab9" d="M708.65,245.48a21.34,21.34,0,0,1,1.34,2.91,6.75,6.75,0,0,1,.48,4.39,4.62,4.62,0,0,1-3.05,3.05,5.26,5.26,0,0,1-4.57-.11,7.48,7.48,0,0,1-3-4,21,21,0,0,1-.81-2.56Zm-7.12,5.25a4.13,4.13,0,0,0,.25.79c.74,2,2.34,2.88,4.67,2a3,3,0,0,0,1.93-4.26,4.66,4.66,0,0,0-.47-1Z"/>
              <path class="acd50c12-1cdd-4392-9e18-88add9116ab9" d="M709.4,264.71l-1.26-3.64-2.34.82,1.41,4.06-1.83.63-2.19-6.3,9.87-3.42,2.12,6.09-1.83.64L712,259.73l-2,.72,1.26,3.63Z"/>
              <path class="acd50c12-1cdd-4392-9e18-88add9116ab9" d="M706.25,269.19l10-3.12.82,2.63-3,3.22a30.8,30.8,0,0,1-2.91,2.69v.05a36.76,36.76,0,0,1,4.1-1.49l2.91-.91.65,2.07-10,3.11-.74-2.36,3.18-3.34a38.28,38.28,0,0,1,3-2.83l0,0c-1.3.47-2.69.94-4.32,1.45l-3,.94Z"/>
              <path class="acd50c12-1cdd-4392-9e18-88add9116ab9" d="M718.35,280l-.75-2.7,1.91-.53,2.16,7.73-1.91.53-.77-2.75-8.15,2.28-.63-2.29Z"/>
              <path class="acd50c12-1cdd-4392-9e18-88add9116ab9" d="M722.87,289.2l-10.12,2.6-.59-2.3,10.12-2.59Z"/>
              <path class="acd50c12-1cdd-4392-9e18-88add9116ab9" d="M723.69,292.49l1.44,6.22-1.88.44-.91-3.91-2.33.54.85,3.65-1.87.44-.85-3.65-4.09.95-.53-2.31Z"/>
              <path class="acd50c12-1cdd-4392-9e18-88add9116ab9" d="M726.23,303.86,716,306l-.49-2.32,10.22-2.16Z"/>
              <path class="acd50c12-1cdd-4392-9e18-88add9116ab9" d="M718.35,316.55a6.81,6.81,0,0,1-.94-2.55c-.66-3.55,1.2-5.79,4.13-6.33,3.5-.66,5.92,1.47,6.5,4.58a6.18,6.18,0,0,1,0,2.61l-1.93-.13a5.37,5.37,0,0,0,0-2A3.43,3.43,0,0,0,719.4,314a5.8,5.8,0,0,0,.7,1.87Z"/>
              <path class="acd50c12-1cdd-4392-9e18-88add9116ab9" d="M721.54,321.33l-2.76-.33-.38-2.42,10.82,1.56.47,3.07L719.86,328l-.39-2.51,2.53-1.21Zm2.15,2.35,2.09-1c.59-.28,1.33-.59,1.92-.83v0c-.64-.06-1.44-.1-2.06-.17l-2.29-.28Z"/>
              <path class="acd50c12-1cdd-4392-9e18-88add9116ab9" d="M728.69,330.34l-.35-2.79,2-.25,1,8-2,.25-.36-2.83-8.4,1.07-.3-2.36Z"/>
              <path class="acd50c12-1cdd-4392-9e18-88add9116ab9" d="M731.81,340.1l-10.38,1.09-.25-2.36,10.39-1.09Z"/>
              <path class="acd50c12-1cdd-4392-9e18-88add9116ab9" d="M727.83,353.42c-3.42.27-5.66-1.64-5.9-4.68s2-5.09,4.92-5.32,5.61,1.56,5.86,4.64S730.7,353.19,727.83,353.42Zm-.74-7.52c-2,.16-3.4,1.24-3.28,2.81s1.72,2.39,3.74,2.23,3.41-1.17,3.28-2.8S729.12,345.74,727.09,345.9Z"/>
              <path class="acd50c12-1cdd-4392-9e18-88add9116ab9" d="M722.67,356.48,733.1,356l.13,2.75-3.73,2.34A30.08,30.08,0,0,1,726,363v0a37.93,37.93,0,0,1,4.35-.4l3-.14.1,2.17-10.44.47-.12-2.48,3.93-2.41a40,40,0,0,1,3.6-2v-.05c-1.38.13-2.85.23-4.55.3l-3.15.15Z"/>
              <path class="acd50c12-1cdd-4392-9e18-88add9116ab9" d="M728.54,382.05c-3.43,0-5.5-2.09-5.5-5.14s2.35-4.91,5.33-4.91,5.47,2,5.46,5.1S731.42,382.06,728.54,382.05Zm-.13-7.55c-2,0-3.49.95-3.49,2.54s1.51,2.51,3.54,2.51c1.88,0,3.49-.89,3.5-2.52S730.44,374.5,728.41,374.5Z"/>
              <path class="acd50c12-1cdd-4392-9e18-88add9116ab9" d="M733.57,385.05l-.21,6.38-1.93-.06.13-4-2.39-.08-.12,3.75-1.92-.07.12-3.74-4.19-.14.07-2.37Z"/>
            </g>
            <g>
              <path class="acd50c12-1cdd-4392-9e18-88add9116ab9" d="M662.54,230.18l-2.73.56-1.11-2.19,10.76-1.88,1.41,2.76L663,237.05l-1.15-2.27,2-1.93Zm2.77,1.57,1.69-1.59c.46-.44,1.07-1,1.55-1.38v0c-.62.15-1.4.37-2,.49l-2.26.45Z"/>
              <path class="acd50c12-1cdd-4392-9e18-88add9116ab9" d="M666.3,238.29a5.93,5.93,0,0,0,.52,2.65c.46,1,1.11,1.31,1.72,1s.72-.88.6-2.21c-.19-1.83.2-3.26,1.58-3.9,1.61-.75,3.48,0,4.52,2.25a6.36,6.36,0,0,1,.65,2.64l-1.95.33a4.79,4.79,0,0,0-.48-2.19c-.43-.93-1.06-1.18-1.55-.95s-.62.94-.51,2.37c.16,2-.34,3.16-1.68,3.78-1.58.74-3.5.15-4.72-2.45a6.82,6.82,0,0,1-.67-2.95Z"/>
              <path class="acd50c12-1cdd-4392-9e18-88add9116ab9" d="M671.29,254.67a6.73,6.73,0,0,1-1.47-2.28c-1.43-3.32-.1-5.92,2.63-7.1,3.28-1.41,6.1.14,7.36,3.05a6.25,6.25,0,0,1,.59,2.54l-1.92.31a5,5,0,0,0-.42-2,3.44,3.44,0,0,0-6.31,2.73,5.83,5.83,0,0,0,1.1,1.67Z"/>
              <path class="acd50c12-1cdd-4392-9e18-88add9116ab9" d="M681.56,253.35a19.85,19.85,0,0,1,1.36,2.85,5.34,5.34,0,0,1,.46,3.45,2.63,2.63,0,0,1-1.68,1.69,2.78,2.78,0,0,1-3.07-.78l0,0a2.65,2.65,0,0,1-1.31,2,28.62,28.62,0,0,0-2.43,1.87l-.89-2.25a13.6,13.6,0,0,1,2-1.57c1.11-.74,1.28-1.28.95-2.18l-.27-.67-3.82,1.5-.86-2.18Zm-3.33,3.82.34.86c.43,1.1,1.24,1.54,2.09,1.2s1.1-1.13.72-2.15a5.77,5.77,0,0,0-.46-1Z"/>
              <path class="acd50c12-1cdd-4392-9e18-88add9116ab9" d="M686.31,265.41,676.48,269l-.81-2.23,9.83-3.57Z"/>
              <path class="acd50c12-1cdd-4392-9e18-88add9116ab9" d="M687.32,268.64a19.28,19.28,0,0,1,1.22,3,5,5,0,0,1,.23,3.29,3.05,3.05,0,0,1-1.94,1.83,3.33,3.33,0,0,1-2.66-.12,4.83,4.83,0,0,1-2.12-2.86,6.25,6.25,0,0,1-.21-.78l-3.55,1.19-.74-2.22Zm-3.75,3.73a3.4,3.4,0,0,0,.19.77c.4,1.19,1.25,1.72,2.27,1.38s1.24-1.12.86-2.23a3.83,3.83,0,0,0-.4-.9Z"/>
              <path class="acd50c12-1cdd-4392-9e18-88add9116ab9" d="M689.43,281.11l-.81-2.69,1.9-.57,2.32,7.69-1.9.57-.82-2.73L682,285.82l-.68-2.27Z"/>
              <path class="acd50c12-1cdd-4392-9e18-88add9116ab9" d="M694.12,290.22,684.06,293l-.63-2.28,10.06-2.78Z"/>
              <path class="acd50c12-1cdd-4392-9e18-88add9116ab9" d="M692.35,304c-3.33.82-5.84-.7-6.57-3.67s1.1-5.32,4-6,5.79.64,6.52,3.63S695.15,303.31,692.35,304Zm-1.94-7.3c-2,.49-3.16,1.77-2.78,3.31s2.08,2.07,4,1.58,3.17-1.7,2.78-3.28S692.38,296.22,690.41,296.7Z"/>
              <path class="acd50c12-1cdd-4392-9e18-88add9116ab9" d="M687.73,307.84,698,305.73l.55,2.7-3.31,2.9a29.43,29.43,0,0,1-3.16,2.39v0a39.86,39.86,0,0,1,4.22-1.08l3-.61.43,2.12-10.23,2.11-.5-2.43,3.5-3a39.31,39.31,0,0,1,3.24-2.52l0,0c-1.34.34-2.78.67-4.45,1l-3.08.63Z"/>
              <path class="acd50c12-1cdd-4392-9e18-88add9116ab9" d="M692.44,319a6.12,6.12,0,0,0-.2,2.7c.19,1.07.73,1.55,1.4,1.44s.92-.66,1.15-2c.31-1.81,1.06-3.09,2.56-3.34,1.75-.31,3.35.93,3.77,3.36a6.35,6.35,0,0,1-.07,2.71l-2-.19a5,5,0,0,0,.12-2.24c-.17-1-.71-1.42-1.25-1.33s-.85.75-1.12,2.16c-.36,1.94-1.16,3-2.61,3.2-1.73.3-3.42-.78-3.91-3.6a6.9,6.9,0,0,1,.13-3Z"/>
              <path class="acd50c12-1cdd-4392-9e18-88add9116ab9" d="M698.67,341.71c-3.4.42-5.72-1.39-6.09-4.42s1.72-5.16,4.68-5.52,5.67,1.31,6,4.37S701.53,341.36,698.67,341.71Zm-1.06-7.47c-2,.25-3.35,1.38-3.15,2.95s1.81,2.3,3.83,2.05c1.86-.22,3.35-1.31,3.15-2.93S699.62,334,697.61,334.24Z"/>
              <path class="acd50c12-1cdd-4392-9e18-88add9116ab9" d="M703.89,344.07a20.43,20.43,0,0,1,.5,3.11,5.3,5.3,0,0,1-.53,3.44,2.66,2.66,0,0,1-2.09,1.15,2.76,2.76,0,0,1-2.72-1.61h0a2.65,2.65,0,0,1-1.82,1.56,29.79,29.79,0,0,0-2.86,1.11l-.21-2.41a12.16,12.16,0,0,1,2.36-.94c1.27-.39,1.58-.87,1.52-1.83l-.07-.71-4.09.36-.2-2.33Zm-4.27,2.72.08.93c.11,1.17.75,1.81,1.67,1.73s1.37-.77,1.29-1.85a5.62,5.62,0,0,0-.17-1.06Z"/>
              <path class="acd50c12-1cdd-4392-9e18-88add9116ab9" d="M705,359.05a18.84,18.84,0,0,1,.34,3,5.77,5.77,0,0,1-.46,3.11,2.29,2.29,0,0,1-2,1.34,2.39,2.39,0,0,1-2.31-1.63h0a2.59,2.59,0,0,1-2.48,2.18,2.76,2.76,0,0,1-2.26-1c-.64-.73-1-2-1.12-4.07a20.66,20.66,0,0,1,0-2.56Zm-8.53,2.69a6.94,6.94,0,0,0,0,.92c0,1.07.49,2,1.59,1.95s1.43-1,1.38-2.18l0-.81Zm4.63-.19,0,.78c.05,1.24.59,1.88,1.36,1.85s1.19-.65,1.14-1.72a6.47,6.47,0,0,0-.1-1Z"/>
              <path class="acd50c12-1cdd-4392-9e18-88add9116ab9" d="M699.59,376.07l0-3.84-2.48,0,0,4.3-1.94,0-.07-6.67,10.44-.11.07,6.45-1.93,0-.05-4.08-2.17,0,0,3.84Z"/>
              <path class="acd50c12-1cdd-4392-9e18-88add9116ab9" d="M705.61,379.52l0,2.37-8.47-.15L697,385.9l-2,0,.11-6.52Z"/>
              <path class="acd50c12-1cdd-4392-9e18-88add9116ab9" d="M705.3,390.94l-10.44-.41.09-2.37,10.44.41Z"/>
              <path class="acd50c12-1cdd-4392-9e18-88add9116ab9" d="M698.74,400.18l.24-3.84-2.48-.15-.27,4.28-1.93-.12.42-6.65,10.43.65-.41,6.44-1.93-.12.25-4.07-2.16-.14-.25,3.84Z"/>
              <path class="acd50c12-1cdd-4392-9e18-88add9116ab9" d="M704.47,404.07l-.59,6.36-1.93-.18.38-4L700,406l-.35,3.73-1.91-.18.35-3.73-4.18-.39.22-2.36Z"/>
              <path class="acd50c12-1cdd-4392-9e18-88add9116ab9" d="M695.62,412.39a6,6,0,0,0-1,2.52c-.13,1.08.24,1.7.92,1.78s1.07-.37,1.67-1.56c.81-1.65,1.9-2.66,3.41-2.48,1.76.22,2.94,1.86,2.64,4.3a6.48,6.48,0,0,1-.84,2.59l-1.83-.76a5,5,0,0,0,.76-2.1c.12-1-.28-1.57-.82-1.63s-1,.47-1.7,1.74c-.89,1.75-2,2.5-3.41,2.32-1.74-.21-3.05-1.73-2.71-4.57a6.64,6.64,0,0,1,1-2.86Z"/>
            </g>
            <g>
              <path class="acd50c12-1cdd-4392-9e18-88add9116ab9" d="M461.25,57.56a19.72,19.72,0,0,1,3.1.63,5.36,5.36,0,0,1,3,1.68,2.67,2.67,0,0,1,.35,2.37,2.78,2.78,0,0,1-2.46,2v0a2.63,2.63,0,0,1,.82,2.25c0,1.22,0,2.62.05,3.07L463.8,69a13.2,13.2,0,0,1-.05-2.54c.07-1.33-.27-1.8-1.19-2.07l-.69-.19-1.09,4-2.26-.62Zm1.07,5,.9.25c1.14.31,2-.08,2.21-1s-.25-1.56-1.29-1.86a5,5,0,0,0-1.05-.21Z"/>
              <path class="acd50c12-1cdd-4392-9e18-88add9116ab9" d="M475.7,67.9,472,66.77l-.73,2.37,4.1,1.26-.57,1.86-6.37-2,3.08-10,6.16,1.9-.57,1.85-3.9-1.2-.63,2.07,3.67,1.13Z"/>
              <path class="acd50c12-1cdd-4392-9e18-88add9116ab9" d="M480.83,63.23l2.24.76-2.72,8,3.93,1.34-.64,1.88-6.18-2.1Z"/>
              <path class="acd50c12-1cdd-4392-9e18-88add9116ab9" d="M489.39,74.48l-1.64,2.24-2.29-.87,6.68-8.64,2.89,1.1-.66,10.91-2.38-.9.2-2.79Zm3.1-.72.18-2.3c0-.65.14-1.44.22-2.07l0,0c-.37.53-.79,1.21-1.16,1.72l-1.37,1.85Z"/>
              <path class="acd50c12-1cdd-4392-9e18-88add9116ab9" d="M500.77,72.71l-2.59-1.07.75-1.83,7.43,3-.76,1.83L503,73.61l-3.22,7.82-2.19-.9Z"/>
              <path class="acd50c12-1cdd-4392-9e18-88add9116ab9" d="M510.8,74.81l-4.2,9.56-2.17-1,4.2-9.56Z"/>
              <path class="acd50c12-1cdd-4392-9e18-88add9116ab9" d="M520.38,84.89c-1.47,3.1-4.23,4.09-7,2.78s-3.44-4.21-2.17-6.9,4.14-4.09,6.93-2.77S521.61,82.29,520.38,84.89Zm-6.88-3.1c-.88,1.85-.63,3.57.8,4.24s2.92-.3,3.79-2.13.68-3.54-.8-4.24S514.36,80,513.5,81.79Z"/>
              <path class="acd50c12-1cdd-4392-9e18-88add9116ab9" d="M520.44,90.88l4.81-9.26,2.45,1.27.16,4.39a30.93,30.93,0,0,1-.14,4l0,0a39.16,39.16,0,0,1,1.83-4L531,84.6l1.92,1-4.81,9.27-2.2-1.14-.12-4.61a37.68,37.68,0,0,1,.09-4.1h0c-.58,1.25-1.23,2.57-2,4.08l-1.45,2.79Z"/>
              <path class="acd50c12-1cdd-4392-9e18-88add9116ab9" d="M532.08,94.27a5.86,5.86,0,0,0,2,1.85c1,.54,1.67.43,2-.17s.07-1.13-.8-2.14c-1.22-1.38-1.73-2.77-1-4.09.87-1.56,2.84-2,5-.81a6.4,6.4,0,0,1,2.06,1.77l-1.39,1.4a5,5,0,0,0-1.66-1.5c-.9-.5-1.56-.34-1.82.13s0,1.13,1,2.24c1.28,1.49,1.56,2.76.84,4-.86,1.53-2.76,2.16-5.26.75a6.87,6.87,0,0,1-2.27-2Z"/>
              <path class="acd50c12-1cdd-4392-9e18-88add9116ab9" d="M546.41,93.26l-2.09,3.44,3.33,2,2.08-3.43,2,1.22-5.42,8.94-2-1.22,2.27-3.74-3.33-2L541,102.2,539,101,544.38,92Z"/>
              <path class="acd50c12-1cdd-4392-9e18-88add9116ab9" d="M556.63,99.65,551,108.43l-2-1.28,5.66-8.79Z"/>
              <path class="acd50c12-1cdd-4392-9e18-88add9116ab9" d="M559.43,101.63a19.81,19.81,0,0,1,2.76,1.62,5.05,5.05,0,0,1,2.17,2.49,3,3,0,0,1-.44,2.62,3.31,3.31,0,0,1-2.19,1.51,6,6,0,0,1-4.06-1.49l-2.1,3.09-1.94-1.31Zm-.74,5.24a4.88,4.88,0,0,0,.62.5c1,.7,2,.61,2.64-.27s.31-1.65-.66-2.31a4.11,4.11,0,0,0-.86-.47Z"/>
              <path class="acd50c12-1cdd-4392-9e18-88add9116ab9" d="M566.91,116.45a6.14,6.14,0,0,0,1.71,2.08c.87.65,1.6.64,2,.09s.21-1.12-.53-2.23c-1-1.52-1.36-3-.45-4.18,1.06-1.43,3.07-1.63,5.05-.16a6.43,6.43,0,0,1,1.82,2L575,115.28a5,5,0,0,0-1.46-1.71c-.82-.61-1.49-.53-1.82-.1s-.1,1.12.68,2.34c1.07,1.65,1.19,2.94.31,4.12-1,1.4-3,1.79-5.32.07a6.91,6.91,0,0,1-2-2.27Z"/>
              <path class="acd50c12-1cdd-4392-9e18-88add9116ab9" d="M579.4,115.82l1.83,1.45-2.87,3.62,0,0c.44-.18.86-.31,1.27-.46l4-1.24L586,121l-5.47,1.33-.89,7-2.15-1.72.8-5.12-1.39.3-2.12,2.67L572.9,124Z"/>
              <path class="acd50c12-1cdd-4392-9e18-88add9116ab9" d="M589.71,124.18l-6.71,8-1.82-1.52,6.71-8Z"/>
              <path class="acd50c12-1cdd-4392-9e18-88add9116ab9" d="M592.3,126.37l1.78,1.57-5.57,6.36,3.12,2.74-1.3,1.49-4.91-4.3Z"/>
              <path class="acd50c12-1cdd-4392-9e18-88add9116ab9" d="M599.11,132.4l1.74,1.61-5.75,6.21,3,2.82-1.35,1.46L592,140.06Z"/>
              <path class="acd50c12-1cdd-4392-9e18-88add9116ab9" d="M600.38,144.55a5.88,5.88,0,0,0,1.41,2.3c.78.76,1.5.84,2,.35s.36-1.07-.22-2.27c-.82-1.65-.95-3.13.11-4.21,1.25-1.27,3.26-1.21,5,.52a6.46,6.46,0,0,1,1.54,2.24l-1.71,1a5.11,5.11,0,0,0-1.22-1.88c-.73-.72-1.41-.73-1.79-.35s-.25,1.1.36,2.41c.84,1.78.78,3.07-.25,4.12-1.22,1.25-3.23,1.37-5.27-.63a6.79,6.79,0,0,1-1.67-2.53Z"/>
            </g>
            <g>
              <path class="acd50c12-1cdd-4392-9e18-88add9116ab9" d="M154.93,143.71a6,6,0,0,0,2.36-1.32c.79-.74.9-1.46.44-2s-1.06-.4-2.29.13c-1.68.74-3.16.81-4.2-.3-1.21-1.3-1.06-3.31.74-5a6.36,6.36,0,0,1,2.3-1.44l.92,1.75a4.93,4.93,0,0,0-1.93,1.13c-.75.7-.79,1.38-.42,1.78s1.08.29,2.42-.25c1.81-.77,3.1-.66,4.1.42,1.2,1.27,1.23,3.28-.86,5.24a6.84,6.84,0,0,1-2.59,1.56Z"/>
              <path class="acd50c12-1cdd-4392-9e18-88add9116ab9" d="M167.05,128.87c2.25,2.58,2.06,5.51-.24,7.52s-5.24,1.47-7.2-.77-2.1-5.43.22-7.46S165.15,126.7,167.05,128.87ZM161.46,134c1.35,1.54,3,2,4.21,1s.89-2.8-.45-4.33-3-2-4.2-1S160.12,132.42,161.46,134Z"/>
              <path class="acd50c12-1cdd-4392-9e18-88add9116ab9" d="M178.32,126.14a6.78,6.78,0,0,1-1.79,2c-2.8,2.28-5.66,1.72-7.55-.59-2.25-2.76-1.53-5.9.92-7.9a6.31,6.31,0,0,1,2.28-1.27l.82,1.76a5.2,5.2,0,0,0-1.78.95,3.43,3.43,0,0,0,4.35,5.31,6.21,6.21,0,0,0,1.31-1.5Z"/>
              <path class="acd50c12-1cdd-4392-9e18-88add9116ab9" d="M176,115.11l6.41,8.25-1.88,1.45-6.4-8.25Z"/>
              <path class="acd50c12-1cdd-4392-9e18-88add9116ab9" d="M185.12,117.92l1,2.6-2,1.45-3.62-10.3,2.49-1.84,8.8,6.5-2.05,1.5-2.23-1.68Zm1.08-3-1.83-1.4c-.52-.39-1.13-.9-1.62-1.31l0,0c.25.59.59,1.32.81,1.91l.82,2.15Z"/>
              <path class="acd50c12-1cdd-4392-9e18-88add9116ab9" d="M187.76,106.42l2-1.35,4.81,7,3.42-2.36,1.12,1.63L193.69,115Z"/>
              <path class="acd50c12-1cdd-4392-9e18-88add9116ab9" d="M205.33,104.05l.79,2.66L204,108l-2.82-10.54,2.63-1.65,8.27,7.14L210,104.31l-2.1-1.85Zm1.31-2.9-1.72-1.54c-.49-.42-1.06-1-1.52-1.43l0,0c.19.61.48,1.36.66,2l.64,2.21Z"/>
              <path class="acd50c12-1cdd-4392-9e18-88add9116ab9" d="M215.16,101.16l-7.35-7.84L210,92.07l2.83,3.34c.82,1,1.68,2,2.35,2.86l0,0c-.42-1.06-.83-2.28-1.24-3.53l-1.36-4.15,2.18-1.25,2.92,3.41c.81,1,1.51,1.83,2.22,2.76h0c-.44-1.09-.85-2.27-1.28-3.45l-1.38-4.14,2.08-1.19,2.85,10.41L220,98.38l-3-3.47c-.7-.81-1.33-1.57-2-2.55l0,0c.43,1.11.77,2.06,1.08,3.1l1.37,4.39Z"/>
              <path class="acd50c12-1cdd-4392-9e18-88add9116ab9" d="M227,91.51l.58,2.73-2.17,1.13-2-10.75,2.75-1.43L233.84,91l-2.25,1.17-2-2Zm1.53-2.79-1.6-1.67c-.45-.46-1-1.06-1.4-1.54l0,0c.15.62.38,1.39.51,2l.47,2.26Z"/>
              <path class="acd50c12-1cdd-4392-9e18-88add9116ab9" d="M231.43,80.65a21.39,21.39,0,0,1,2.75-1.55,5.27,5.27,0,0,1,3.4-.73,2.65,2.65,0,0,1,1.81,1.56,2.77,2.77,0,0,1-.54,3.12l0,0a2.63,2.63,0,0,1,2.1,1.15c.8.93,1.69,2,2,2.29l-2.18,1a13.06,13.06,0,0,1-1.71-1.88c-.81-1-1.37-1.18-2.25-.78l-.64.31,1.78,3.7-2.11,1Zm4.06,3,.84-.4c1.06-.51,1.44-1.34,1-2.17s-1.21-1-2.2-.56a6.68,6.68,0,0,0-.93.53Z"/>
              <path class="acd50c12-1cdd-4392-9e18-88add9116ab9" d="M249.14,79l-3.52,1.56,1,2.27,3.92-1.74.79,1.77-6.1,2.7L241,76l5.9-2.61.79,1.78L244,76.79l.88,2,3.51-1.56Z"/>
              <path class="acd50c12-1cdd-4392-9e18-88add9116ab9" d="M253.87,81.74,250,72.06l2.56-1L256,73.76a30.91,30.91,0,0,1,2.92,2.69l0,0a38.84,38.84,0,0,1-1.82-4L256,69.63l2-.81,3.91,9.69-2.3.93L256,76.53A37.19,37.19,0,0,1,253,73.79l0,0c.57,1.26,1.15,2.61,1.79,4.19l1.17,2.92Z"/>
              <path class="acd50c12-1cdd-4392-9e18-88add9116ab9" d="M269.16,71.13l-3.61,1.32.85,2.32,4-1.47.67,1.82-6.26,2.29-3.58-9.82,6.05-2.2L268,67.2l-3.83,1.4.74,2,3.61-1.32Z"/>
              <path class="acd50c12-1cdd-4392-9e18-88add9116ab9" d="M272.9,71.93a6.11,6.11,0,0,0,2.69-.21c1-.34,1.43-1,1.22-1.6s-.79-.81-2.13-.84c-1.83,0-3.21-.59-3.69-2-.56-1.69.42-3.45,2.76-4.23a6.42,6.42,0,0,1,2.7-.34l.1,2a5,5,0,0,0-2.23.21c-1,.33-1.3.92-1.13,1.44s.86.73,2.31.79c2,.06,3.09.7,3.55,2.1.55,1.66-.26,3.5-3,4.4a6.83,6.83,0,0,1-3,.33Z"/>
              <path class="acd50c12-1cdd-4392-9e18-88add9116ab9" d="M281.69,69.06a6,6,0,0,0,2.7-.13c1-.31,1.46-.91,1.26-1.56s-.77-.84-2.1-.91c-1.83-.08-3.19-.68-3.63-2.13-.51-1.71.52-3.44,2.88-4.15a6.37,6.37,0,0,1,2.71-.26l0,2a4.92,4.92,0,0,0-2.24.15c-1,.29-1.32.88-1.16,1.4s.84.75,2.28.85c2,.13,3.07.8,3.49,2.21.5,1.68-.36,3.49-3.11,4.31a6.76,6.76,0,0,1-3,.25Z"/>
            </g>
            <g>
              <path class="acd50c12-1cdd-4392-9e18-88add9116ab9" d="M62.42,444.43a6.1,6.1,0,0,0,.11-2.7c-.22-1.06-.77-1.53-1.44-1.4s-.9.69-1.09,2c-.25,1.82-1,3.12-2.45,3.43-1.75.35-3.38-.83-3.87-3.25a6.29,6.29,0,0,1,0-2.71l2,.13a4.8,4.8,0,0,0,0,2.24c.2,1,.76,1.4,1.29,1.29s.82-.77,1-2.19c.3-1.95,1.07-3,2.51-3.28,1.72-.35,3.44.67,4,3.48a6.85,6.85,0,0,1,0,3Z"/>
              <path class="acd50c12-1cdd-4392-9e18-88add9116ab9" d="M57.56,429.42l.66,3.79,2.44-.43-.73-4.23,1.91-.33L63,434.79l-10.3,1.79-1.1-6.35,1.91-.34.7,4,2.13-.37-.65-3.79Z"/>
              <path class="acd50c12-1cdd-4392-9e18-88add9116ab9" d="M51.08,427l-.34-2.34,8.37-1.21-.59-4.11,2-.28.93,6.45Z"/>
              <path class="acd50c12-1cdd-4392-9e18-88add9116ab9" d="M49.81,418l-.73-6.34,1.92-.23.46,4,2.38-.27-.44-3.73,1.91-.22.43,3.73,4.18-.49.27,2.36Z"/>
              <path class="acd50c12-1cdd-4392-9e18-88add9116ab9" d="M52.86,404.46l1.56-.14.37,4.05-1.56.14Z"/>
              <path class="acd50c12-1cdd-4392-9e18-88add9116ab9" d="M55.81,399.33l2.72.57.16,2.44-10.63-2.51-.21-3.09,10.22-3.92.17,2.54-2.63,1Zm-1.94-2.53-2.17.79c-.61.23-1.37.46-2,.66v0c.62.11,1.42.22,2,.35l2.25.47Z"/>
              <path class="acd50c12-1cdd-4392-9e18-88add9116ab9" d="M57.93,389.32l-10.38,2.75-.06-2.52,4.28-.91c1.23-.26,2.58-.51,3.62-.71v0c-1.13-.14-2.39-.36-3.69-.59l-4.29-.77L47.34,384l4.38-.95c1.21-.26,2.32-.46,3.48-.65v0c-1.17-.12-2.4-.32-3.64-.51l-4.3-.74-.06-2.4,10.51,2.42.07,2.56-4.47,1c-1.05.23-2,.42-3.21.58v0c1.18.16,2.18.3,3.24.52l4.52.87Z"/>
              <path class="acd50c12-1cdd-4392-9e18-88add9116ab9" d="M55,374.34l2.67.78,0,2.45-10.41-3.32,0-3.1L57.78,368l0,2.54-2.69.78Zm-1.74-2.67-2.22.62c-.63.18-1.4.36-2,.51v0c.62.16,1.41.32,2,.5l2.21.65Z"/>
              <path class="acd50c12-1cdd-4392-9e18-88add9116ab9" d="M47.57,365.27a20.14,20.14,0,0,1-.08-3.15,5.35,5.35,0,0,1,1-3.34,2.63,2.63,0,0,1,2.23-.86,2.78,2.78,0,0,1,2.49,1.95h0a2.63,2.63,0,0,1,2-1.31c1.19-.27,2.56-.54,3-.72l-.11,2.41a12.7,12.7,0,0,1-2.47.62c-1.31.22-1.68.66-1.74,1.62l0,.71,4.1.18-.1,2.34Zm4.59-2.14,0-.93c.06-1.17-.5-1.9-1.42-1.94s-1.46.59-1.53,1.67a7,7,0,0,0,0,1.08Z"/>
              <path class="acd50c12-1cdd-4392-9e18-88add9116ab9" d="M54.44,348.89l-.29,3.83,2.48.19.32-4.29,1.93.15-.5,6.65L48,354.63l.48-6.43,1.94.15-.31,4.06,2.17.17.28-3.84Z"/>
              <path class="acd50c12-1cdd-4392-9e18-88add9116ab9" d="M59.12,346l-10.39-1.14.3-2.74,4-1.74a30.82,30.82,0,0,1,3.75-1.31v0a37.43,37.43,0,0,1-4.35-.27l-3-.33.24-2.16,10.39,1.14-.27,2.46-4.25,1.78a39.23,39.23,0,0,1-3.86,1.41v.05c1.37.08,2.84.21,4.54.4l3.13.34Z"/>
              <path class="acd50c12-1cdd-4392-9e18-88add9116ab9" d="M57,327.51l-.54,3.81,2.45.35.61-4.25,1.91.27-.93,6.6-10.35-1.47.91-6.39,1.92.28-.58,4,2.15.31.54-3.81Z"/>
              <path class="acd50c12-1cdd-4392-9e18-88add9116ab9" d="M59.43,324.6a6,6,0,0,0,1.09-2.47c.18-1.07-.16-1.71-.84-1.82s-1.09.31-1.74,1.47c-.89,1.61-2,2.56-3.53,2.31-1.75-.31-2.85-2-2.43-4.43a6.4,6.4,0,0,1,1-2.54l1.79.84a5,5,0,0,0-.86,2.07c-.17,1,.2,1.58.74,1.67s1-.42,1.78-1.66c1-1.7,2.08-2.4,3.53-2.15,1.72.3,3,1.88,2.47,4.71a6.88,6.88,0,0,1-1.12,2.81Z"/>
              <path class="acd50c12-1cdd-4392-9e18-88add9116ab9" d="M61.05,315.47A6,6,0,0,0,62.21,313c.21-1.06-.11-1.71-.78-1.85s-1.1.29-1.79,1.43c-.94,1.58-2.11,2.5-3.6,2.2-1.74-.35-2.79-2.08-2.3-4.5a6.38,6.38,0,0,1,1-2.51l1.76.9a4.93,4.93,0,0,0-.92,2c-.2,1,.16,1.58.69,1.69s1.06-.39,1.83-1.61c1-1.67,2.14-2.33,3.59-2,1.72.35,2.91,2,2.34,4.77a6.83,6.83,0,0,1-1.21,2.78Z"/>
            </g>
            <g>
              <path class="acd50c12-1cdd-4392-9e18-88add9116ab9" d="M287.68,685.93a5.89,5.89,0,0,0-2.32-1.38c-1-.31-1.72,0-1.91.61s.18,1.12,1.26,1.91c1.48,1.08,2.29,2.33,1.86,3.78-.51,1.71-2.33,2.59-4.69,1.88a6.3,6.3,0,0,1-2.4-1.27l1-1.67a4.93,4.93,0,0,0,2,1.1c1,.29,1.59,0,1.74-.53s-.28-1.09-1.43-2c-1.57-1.18-2.13-2.35-1.71-3.76.51-1.68,2.22-2.71,5-1.89a6.82,6.82,0,0,1,2.65,1.45Z"/>
              <path class="acd50c12-1cdd-4392-9e18-88add9116ab9" d="M272.21,683.12l3.64,1.21.78-2.35-4.07-1.35.61-1.84,6.33,2.1-3.3,9.91-6.11-2,.61-1.84,3.86,1.29.69-2.06L271.6,685Z"/>
              <path class="acd50c12-1cdd-4392-9e18-88add9116ab9" d="M267,687.68l-2.22-.82,2.9-7.94-3.91-1.43.68-1.86,6.13,2.23Z"/>
              <path class="acd50c12-1cdd-4392-9e18-88add9116ab9" d="M258.4,684.51l-5.94-2.36.72-1.8,3.73,1.48.88-2.22-3.48-1.38.7-1.79,3.49,1.39,1.55-3.9,2.2.87Z"/>
              <path class="acd50c12-1cdd-4392-9e18-88add9116ab9" d="M248,675.44l.61-1.44,3.74,1.59-.61,1.45Z"/>
              <path class="acd50c12-1cdd-4392-9e18-88add9116ab9" d="M238.13,668.76c-.49,1.16-1.08,2.56-1.72,3.94h0c.86-1.07,1.88-2.23,2.76-3.17l2.87-3.16,1.67.77-.69,4.14c-.21,1.26-.51,2.75-.86,4.1h0c.65-1.25,1.37-2.7,2-3.84l1.84-3.52,2,.92-5,9.19-2.85-1.33.54-3.59c.21-1.23.47-2.55.77-3.76l0,0c-.78,1-1.68,2.07-2.48,3l-2.47,2.68-2.8-1.3,3.88-9.71,2.1,1Z"/>
              <path class="acd50c12-1cdd-4392-9e18-88add9116ab9" d="M231.63,664.09l1.89-2.05,2.18,1.12L228.09,671l-2.76-1.42,1.89-10.77,2.26,1.16-.51,2.75Zm-3.16.36-.44,2.27c-.11.64-.3,1.41-.45,2h0c.42-.48.92-1.11,1.35-1.57l1.56-1.69Z"/>
              <path class="acd50c12-1cdd-4392-9e18-88add9116ab9" d="M225.19,657.71l-5.1,9.11-2.41-1.35,0-4.4a30.71,30.71,0,0,1,.26-4l0,0a39.36,39.36,0,0,1-1.95,3.9l-1.49,2.66-1.9-1,5.11-9.12,2.16,1.22,0,4.6a40.85,40.85,0,0,1-.22,4.1h.05c.62-1.23,1.31-2.53,2.14-4l1.54-2.74Z"/>
              <path class="acd50c12-1cdd-4392-9e18-88add9116ab9" d="M211.6,653l2-1.91,2.09,1.27-8.15,7.27L204.92,658l2.65-10.6,2.18,1.32-.71,2.71Zm-3.18.13-.6,2.23c-.16.63-.4,1.39-.59,2l0,0c.45-.45,1-1,1.45-1.48l1.68-1.57Z"/>
              <path class="acd50c12-1cdd-4392-9e18-88add9116ab9" d="M198.38,642a12.17,12.17,0,0,1,3.24,1.42,5.86,5.86,0,0,1,2.78,3.51,5.09,5.09,0,0,1-.85,4c-1.92,2.89-5.12,3.17-8,1.29a7.23,7.23,0,0,1-2.14-2l1.45-1.31a5.9,5.9,0,0,0,1.79,1.71,3.41,3.41,0,0,0,3.88-5.6,3.29,3.29,0,0,0-1.06-.5l-1.2,1.82,1.35.89-1,1.54-3.26-2.13Z"/>
              <path class="acd50c12-1cdd-4392-9e18-88add9116ab9" d="M188.56,640l3.14,2.21,1.43-2-3.51-2.47,1.11-1.58,5.45,3.83-6,8.54-5.28-3.7,1.12-1.59,3.33,2.35,1.25-1.78-3.15-2.21Z"/>
              <path class="acd50c12-1cdd-4392-9e18-88add9116ab9" d="M179.06,632.34c-.72,1-1.6,2.26-2.52,3.47l0,0c1.07-.86,2.32-1.79,3.38-2.52l3.48-2.47L184.9,632l-1.56,3.9c-.47,1.18-1.09,2.58-1.72,3.82l0,0c.9-1.09,1.91-2.34,2.76-3.33l2.55-3,1.74,1.32-6.85,7.92-2.51-1.91,1.3-3.39c.47-1.16,1-2.4,1.56-3.51l0,0c-1,.78-2.09,1.67-3.06,2.39l-3,2.09-2.46-1.87,5.87-8.67,1.84,1.4Z"/>
              <path class="acd50c12-1cdd-4392-9e18-88add9116ab9" d="M169.66,625.3l3,2.44,1.57-1.92-3.32-2.72,1.22-1.5,5.16,4.23-6.62,8.08-5-4.09,1.23-1.5,3.15,2.59,1.38-1.68-3-2.44Z"/>
              <path class="acd50c12-1cdd-4392-9e18-88add9116ab9" d="M170,619.81l-6.89,7.86L161,625.85l.89-4.31a29.68,29.68,0,0,1,1.08-3.82l0,0a37.19,37.19,0,0,1-2.72,3.41l-2,2.29L156.59,622l6.89-7.85,1.86,1.63-1,4.5a37.29,37.29,0,0,1-1.07,4h.05c.86-1.07,1.81-2.2,2.93-3.48l2.08-2.37Z"/>
              <path class="acd50c12-1cdd-4392-9e18-88add9116ab9" d="M154,616.88l2.05,1.92-1.36,1.45-5.86-5.49,1.35-1.44,2.09,1.94,5.78-6.18,1.73,1.62Z"/>
            </g>
            <g>
              <path class="acd50c12-1cdd-4392-9e18-88add9116ab9" d="M557.35,619.27,552.19,623l-1.14-1.57,3.24-2.36-1.4-1.93-3,2.21-1.14-1.55,3-2.21-2.48-3.4,1.92-1.39Z"/>
              <path class="acd50c12-1cdd-4392-9e18-88add9116ab9" d="M549.76,624.73l-2,1.34-4.78-7-3.43,2.34-1.12-1.64,5.39-3.68Z"/>
              <path class="acd50c12-1cdd-4392-9e18-88add9116ab9" d="M540.34,631,537.12,626c-1-1.52-2-1.92-3-1.28s-1.16,1.77-.17,3.32l3.22,5.08-2,1.27-3.14-5c-1.73-2.73-1.17-4.89,1.13-6.36s4.31-1,6.1,1.81l3.12,4.92Z"/>
              <path class="acd50c12-1cdd-4392-9e18-88add9116ab9" d="M530.14,637.3l-5.33-9,2-1.21,5.33,9Z"/>
              <path class="acd50c12-1cdd-4392-9e18-88add9116ab9" d="M527.12,638.92a21,21,0,0,1-2.69,1.74,6.69,6.69,0,0,1-4.28,1.09,4.63,4.63,0,0,1-3.46-2.59,5.32,5.32,0,0,1-.53-4.54,7.58,7.58,0,0,1,3.57-3.52,21.39,21.39,0,0,1,2.42-1.16Zm-6.2-6.31a4.16,4.16,0,0,0-.75.36c-1.88,1-2.53,2.73-1.32,4.91a3,3,0,0,0,4.49,1.31,4.8,4.8,0,0,0,.89-.6Z"/>
              <path class="acd50c12-1cdd-4392-9e18-88add9116ab9" d="M514.37,645.94l-4.78-9.29,2.1-1.08,4.79,9.29Z"/>
              <path class="acd50c12-1cdd-4392-9e18-88add9116ab9" d="M508.77,646.52l2.53-1.22.86,1.79-7.23,3.49-.86-1.79,2.57-1.24L503,639.93l2.14-1Z"/>
              <path class="acd50c12-1cdd-4392-9e18-88add9116ab9" d="M495.75,643.26l1.72,3.91,5.51,4.32-2.47,1.09-2-1.87c-.6-.57-1-1-1.54-1.51h0c.05.69.07,1.35.08,2.15l.05,2.73-2.43,1.06.7-7-1.75-4Z"/>
              <path class="acd50c12-1cdd-4392-9e18-88add9116ab9" d="M477.43,656.39c-1.21-3.2,0-5.88,2.85-7s5.42.46,6.47,3.24c1.11,2.93.07,5.82-2.82,6.91S478.45,659.09,477.43,656.39Zm7-2.79c-.73-1.92-2.13-2.93-3.61-2.37s-1.81,2.31-1.1,4.21c.67,1.75,2.08,2.94,3.6,2.37S485.15,655.49,484.44,653.6Z"/>
              <path class="acd50c12-1cdd-4392-9e18-88add9116ab9" d="M476.36,662.16l-6.05,2-.62-1.84,3.81-1.27-.76-2.26L469.18,660l-.61-1.82,3.56-1.2-1.34-4,2.25-.75Z"/>
              <path class="acd50c12-1cdd-4392-9e18-88add9116ab9" d="M452.89,658.76a6.8,6.8,0,0,1,2.46-1.16c3.47-1,5.87.68,6.68,3.54,1,3.44-.94,6-4,6.9a6.31,6.31,0,0,1-2.61.25l0-1.94a5.07,5.07,0,0,0,2-.16,3.44,3.44,0,0,0-1.88-6.61,6,6,0,0,0-1.8.86Z"/>
              <path class="acd50c12-1cdd-4392-9e18-88add9116ab9" d="M450.63,669.81,449.21,664c-.42-1.75-1.3-2.47-2.48-2.19s-1.66,1.3-1.22,3.09l1.42,5.84-2.29.56-1.39-5.69c-.76-3.13.46-5,3.11-5.65s4.41.42,5.2,3.66l1.38,5.66Z"/>
              <path class="acd50c12-1cdd-4392-9e18-88add9116ab9" d="M441.25,672l-2.32.48-1.71-8.29-4.07.84-.4-1.94,6.4-1.32Z"/>
              <path class="acd50c12-1cdd-4392-9e18-88add9116ab9" d="M431,672l2.76-.49.34,2-7.9,1.4-.34-2,2.8-.49-1.47-8.34,2.33-.41Z"/>
              <path class="acd50c12-1cdd-4392-9e18-88add9116ab9" d="M421.3,675.6l-.84-6c-.25-1.78-1-2.59-2.25-2.43s-1.78,1.13-1.53,3l.84,6-2.33.33-.82-5.8c-.44-3.2.95-4.94,3.66-5.32s4.34.86,4.81,4.16l.8,5.77Z"/>
              <path class="acd50c12-1cdd-4392-9e18-88add9116ab9" d="M411.72,676.72a21,21,0,0,1-3.11.54,5.3,5.3,0,0,1-3.44-.48,2.65,2.65,0,0,1-1.18-2.07,2.76,2.76,0,0,1,1.57-2.75v-.05a2.65,2.65,0,0,1-1.59-1.8c-.44-1.14-.9-2.46-1.14-2.84l2.4-.25a12.56,12.56,0,0,1,1,2.35c.41,1.27.9,1.58,1.86,1.49l.71-.07-.42-4.09,2.33-.23Zm-2.78-4.23-.93.09c-1.17.12-1.8.78-1.71,1.69s.79,1.37,1.87,1.27a6,6,0,0,0,1.06-.18Z"/>
              <path class="acd50c12-1cdd-4392-9e18-88add9116ab9" d="M394.5,672.28l3.84-.26-.17-2.48-4.28.3-.14-1.94,6.65-.45.71,10.42-6.43.44-.13-1.93,4.06-.28-.14-2.17-3.84.27Z"/>
            </g>
            <g>
              <path class="acd50c12-1cdd-4392-9e18-88add9116ab9" d="M561.11,648.7l-5.89-8.63,2-1.34,5.89,8.63Z"/>
              <path class="acd50c12-1cdd-4392-9e18-88add9116ab9" d="M552.63,641.83l5.65,8.79L556,652.11l-3.89-2a30.13,30.13,0,0,1-3.38-2.09l0,0a38.89,38.89,0,0,1,2.53,3.56l1.66,2.56L551,655.3l-5.66-8.78,2.09-1.35,4.06,2.18c1.12.61,2.43,1.37,3.52,2.12l0,0c-.8-1.12-1.62-2.34-2.54-3.78L550.8,643Z"/>
              <path class="acd50c12-1cdd-4392-9e18-88add9116ab9" d="M545.38,656.39l2.41-1.44,1,1.7-6.9,4.12-1-1.7,2.44-1.46L539,650.34l2-1.21Z"/>
              <path class="acd50c12-1cdd-4392-9e18-88add9116ab9" d="M531.35,659.79l3.35-1.87-1.21-2.17-3.74,2.1-1-1.7,5.82-3.24,5.09,9.12-5.63,3.14-.94-1.69,3.56-2-1.06-1.89-3.36,1.87Z"/>
              <path class="acd50c12-1cdd-4392-9e18-88add9116ab9" d="M531.1,666.62a20.93,20.93,0,0,1-2.7,1.64,5.29,5.29,0,0,1-3.38.82,2.65,2.65,0,0,1-1.86-1.49,2.78,2.78,0,0,1,.46-3.14l0,0a2.63,2.63,0,0,1-2.14-1.09,28,28,0,0,0-2.11-2.22L521.5,660a13.1,13.1,0,0,1,1.76,1.83c.85,1,1.41,1.14,2.27.71l.64-.33-1.89-3.65,2.08-1.07ZM527,663.71l-.83.42c-1,.54-1.39,1.39-1,2.2s1.24,1,2.21.5a7.56,7.56,0,0,0,.92-.56Z"/>
              <path class="acd50c12-1cdd-4392-9e18-88add9116ab9" d="M518.19,664.37a6,6,0,0,0-2.65.55c-1,.47-1.3,1.12-1,1.73s.89.71,2.21.58c1.83-.21,3.27.17,3.92,1.54.77,1.6,0,3.48-2.2,4.54a6.44,6.44,0,0,1-2.63.68l-.35-2a5,5,0,0,0,2.18-.49c.93-.45,1.17-1.08.94-1.57s-1-.61-2.39-.49c-2,.18-3.15-.31-3.79-1.64-.76-1.58-.18-3.5,2.4-4.74a6.81,6.81,0,0,1,2.95-.71Z"/>
              <path class="acd50c12-1cdd-4392-9e18-88add9116ab9" d="M504.84,672.71l3.51-1.56-1-2.26-3.93,1.74-.79-1.77,6.1-2.71,4.24,9.56-5.9,2.61-.79-1.77L510,674.9l-.88-2-3.51,1.56Z"/>
              <path class="acd50c12-1cdd-4392-9e18-88add9116ab9" d="M493.23,673a6.82,6.82,0,0,1,2.32-1.43c3.34-1.36,5.91,0,7,2.78,1.34,3.3-.27,6.1-3.2,7.29a6.2,6.2,0,0,1-2.55.54l-.27-1.92a5,5,0,0,0,2-.39,3.43,3.43,0,0,0-2.61-6.35,6.06,6.06,0,0,0-1.69,1.05Z"/>
              <path class="acd50c12-1cdd-4392-9e18-88add9116ab9" d="M491.54,682.41l2.63-1,.68,1.86-7.53,2.78-.69-1.86,2.68-1-2.93-7.94,2.22-.82Z"/>
              <path class="acd50c12-1cdd-4392-9e18-88add9116ab9" d="M482.72,687.66l-3.39-9.88,2.24-.77,3.39,9.88Z"/>
              <path class="acd50c12-1cdd-4392-9e18-88add9116ab9" d="M468.86,686.73c-1-3.27.34-5.87,3.26-6.78s5.39.76,6.28,3.61-.28,5.82-3.23,6.74S469.72,689.48,468.86,686.73Zm7.17-2.39c-.61-2-2-3-3.47-2.57s-1.95,2.2-1.34,4.14,1.9,3.06,3.45,2.58S476.63,686.28,476,684.34Z"/>
              <path class="acd50c12-1cdd-4392-9e18-88add9116ab9" d="M464.74,682.36l2.73,10.08-2.66.72-3.1-3.12a32.23,32.23,0,0,1-2.58-3h0a39,39,0,0,1,1.33,4.15l.8,2.95-2.09.56-2.74-10.07,2.4-.65,3.2,3.3a40.65,40.65,0,0,1,2.72,3.08l0,0c-.42-1.32-.84-2.73-1.28-4.38l-.83-3Z"/>
              <path class="acd50c12-1cdd-4392-9e18-88add9116ab9" d="M453.89,687.75a5.91,5.91,0,0,0-2.7,0c-1.06.25-1.52.82-1.36,1.49s.72.88,2,1c1.83.19,3.15.86,3.5,2.34.41,1.74-.72,3.41-3.12,4a6.42,6.42,0,0,1-2.72.1l.08-2a5,5,0,0,0,2.24,0c1-.24,1.37-.81,1.24-1.33s-.79-.8-2.22-1c-1.95-.24-3-1-3.35-2.41-.41-1.71.56-3.47,3.36-4.13a6.88,6.88,0,0,1,3-.06Z"/>
              <path class="acd50c12-1cdd-4392-9e18-88add9116ab9" d="M438.15,691.43l.24-2.77,2.4-.45-1.21,10.85-3.05.57-5.1-9.67,2.5-.46,1.28,2.48Zm-2.28,2.22,1.05,2.06c.3.58.62,1.3.89,1.89h0c0-.64,0-1.44.1-2.07l.2-2.29Z"/>
              <path class="acd50c12-1cdd-4392-9e18-88add9116ab9" d="M429.15,690.34l1.55,10.33-2.73.41-2.71-3.46a29.16,29.16,0,0,1-2.22-3.29H423a40,40,0,0,1,.85,4.28l.45,3-2.15.32-1.55-10.34,2.45-.36,2.81,3.65a37.45,37.45,0,0,1,2.34,3.38l.05,0c-.27-1.36-.52-2.81-.77-4.5l-.47-3.11Z"/>
              <path class="acd50c12-1cdd-4392-9e18-88add9116ab9" d="M418.65,702.27a21.3,21.3,0,0,1-3.15.58,6.72,6.72,0,0,1-4.37-.63,4.63,4.63,0,0,1-2.2-3.72,5.28,5.28,0,0,1,1.25-4.39,7.44,7.44,0,0,1,4.64-1.88,20.17,20.17,0,0,1,2.68-.15Zm-3.31-8.2a4.08,4.08,0,0,0-.82,0c-2.13.22-3.38,1.55-3.1,4a3,3,0,0,0,3.63,2.92,4.74,4.74,0,0,0,1.05-.21Z"/>
            </g>
            <g>
              <path class="acd50c12-1cdd-4392-9e18-88add9116ab9" d="M559.4,683l-3-5.18c-.91-1.55-2-2-3-1.38s-1.22,1.72-.28,3.31l3,5.18-2,1.2-3-5c-1.64-2.78-1-4.93,1.33-6.31s4.35-.86,6,2l3,5Z"/>
              <path class="acd50c12-1cdd-4392-9e18-88add9116ab9" d="M546.09,678.67l5,9.17-2.42,1.32-3.74-2.33a31.59,31.59,0,0,1-3.21-2.33l0,0a39.15,39.15,0,0,1,2.26,3.73l1.46,2.68-1.91,1-5-9.17,2.17-1.19,3.89,2.48a38.59,38.59,0,0,1,3.35,2.37l0,0c-.71-1.18-1.44-2.46-2.25-3.95l-1.51-2.77Z"/>
              <path class="acd50c12-1cdd-4392-9e18-88add9116ab9" d="M540.3,693.47a20.57,20.57,0,0,1-2.76,1.63,6.73,6.73,0,0,1-4.32.91,4.64,4.64,0,0,1-3.34-2.73,5.31,5.31,0,0,1-.34-4.56,7.54,7.54,0,0,1,3.71-3.36,22.65,22.65,0,0,1,2.46-1.06Zm-5.93-6.56a5,5,0,0,0-.76.33c-1.91.94-2.63,2.62-1.52,4.85a3,3,0,0,0,4.42,1.5,4.3,4.3,0,0,0,.91-.57Z"/>
              <path class="acd50c12-1cdd-4392-9e18-88add9116ab9" d="M521.29,696.11l3.49-1.61-1-2.25-3.9,1.8-.81-1.76,6.05-2.79,4.38,9.48-5.85,2.7-.82-1.76,3.7-1.71-.91-2-3.48,1.62Z"/>
              <path class="acd50c12-1cdd-4392-9e18-88add9116ab9" d="M520.54,702.91a20.46,20.46,0,0,1-2.81,1.43,5.33,5.33,0,0,1-3.43.58,2.66,2.66,0,0,1-1.74-1.63,2.75,2.75,0,0,1,.68-3.09l0-.05a2.62,2.62,0,0,1-2.05-1.24,30.32,30.32,0,0,0-1.94-2.37l2.22-1a13.52,13.52,0,0,1,1.63,1.95c.77,1.09,1.32,1.24,2.21.88l.66-.28-1.62-3.78,2.15-.92Zm-3.92-3.21-.86.36c-1.08.47-1.49,1.28-1.13,2.12s1.17,1.07,2.17.66a6.44,6.44,0,0,0,1-.49Z"/>
              <path class="acd50c12-1cdd-4392-9e18-88add9116ab9" d="M507.82,699.72a6,6,0,0,0-2.67.36c-1,.4-1.38,1-1.13,1.66s.84.77,2.17.73c1.84-.08,3.24.4,3.8,1.81.66,1.66-.23,3.48-2.52,4.38a6.47,6.47,0,0,1-2.67.49l-.21-2a4.8,4.8,0,0,0,2.21-.34c.95-.37,1.24-1,1.05-1.49s-.91-.68-2.35-.66c-2,0-3.12-.53-3.67-1.9-.64-1.63.07-3.51,2.74-4.57a6.87,6.87,0,0,1,3-.49Z"/>
              <path class="acd50c12-1cdd-4392-9e18-88add9116ab9" d="M499.26,709.48l2.64-1,.68,1.86L495,713.12l-.68-1.86,2.68-1-2.89-7.95,2.23-.81Z"/>
              <path class="acd50c12-1cdd-4392-9e18-88add9116ab9" d="M488.74,707.05l-.14-2.78,2.33-.77.26,10.92-2.94,1-6.37-8.89,2.41-.8L485.9,708Zm-2,2.51,1.32,1.9c.37.53.79,1.2,1.13,1.74h0c0-.63-.15-1.43-.18-2.06l-.11-2.3Z"/>
              <path class="acd50c12-1cdd-4392-9e18-88add9116ab9" d="M479.69,707.18l3,10L480,718l-3.16-3.05a30.83,30.83,0,0,1-2.65-2.95h-.05a38,38,0,0,1,1.43,4.12l.87,2.93-2.08.61-3-10,2.38-.71,3.28,3.23a40.55,40.55,0,0,1,2.79,3l0,0c-.45-1.31-.9-2.71-1.38-4.34l-.89-3Z"/>
              <path class="acd50c12-1cdd-4392-9e18-88add9116ab9" d="M470.93,720.46a20.28,20.28,0,0,1-3,1,6.65,6.65,0,0,1-4.42,0,4.61,4.61,0,0,1-2.7-3.36,5.3,5.3,0,0,1,.62-4.53,7.51,7.51,0,0,1,4.33-2.51,19.58,19.58,0,0,1,2.64-.52Zm-4.43-7.66a4.17,4.17,0,0,0-.8.16c-2.08.52-3.13,2-2.51,4.42a3,3,0,0,0,4,2.39,4.43,4.43,0,0,0,1-.36Z"/>
              <path class="acd50c12-1cdd-4392-9e18-88add9116ab9" d="M456.89,724.1l-2.36-10.19,2.31-.53,2.37,10.18Z"/>
              <path class="acd50c12-1cdd-4392-9e18-88add9116ab9" d="M451.47,714.62l2.1,10.24-2.7.55L448,722.1a29.43,29.43,0,0,1-2.39-3.16h-.05a39.86,39.86,0,0,1,1.08,4.22l.62,3-2.13.43L443,716.37l2.43-.5,3,3.5a39.31,39.31,0,0,1,2.52,3.24l.05,0c-.34-1.34-.67-2.77-1-4.44l-.63-3.09Z"/>
              <path class="acd50c12-1cdd-4392-9e18-88add9116ab9" d="M431.45,718.88a11.58,11.58,0,0,1,3.34-1.17,5.84,5.84,0,0,1,4.42.67,5.05,5.05,0,0,1,2.09,3.5c.57,3.42-1.59,5.8-5,6.38a7.07,7.07,0,0,1-2.94,0l.17-1.94a6,6,0,0,0,2.47,0,3.41,3.41,0,0,0-1-6.74,3.49,3.49,0,0,0-1.12.35l.37,2.16,1.59-.28.31,1.82-3.83.66Z"/>
            </g>
            <g>
              <path class="acd50c12-1cdd-4392-9e18-88add9116ab9" d="M670,451.19a18.44,18.44,0,0,1-.61,3.14,5.05,5.05,0,0,1-1.63,2.88,3.1,3.1,0,0,1-2.63.45,3.33,3.33,0,0,1-2.15-1.57,4.86,4.86,0,0,1-.19-3.56,5.28,5.28,0,0,1,.26-.77l-3.62-1,.61-2.27Zm-5.19,1a4.21,4.21,0,0,0-.26.75c-.32,1.21.09,2.13,1.12,2.4s1.66-.25,2-1.39a3.88,3.88,0,0,0,.17-1Z"/>
              <path class="acd50c12-1cdd-4392-9e18-88add9116ab9" d="M659.73,468.89c-3.27-1-4.65-3.6-3.75-6.52s3.69-4,6.53-3.13,4.64,3.52,3.73,6.47S662.49,469.74,659.73,468.89Zm2.09-7.26c-2-.6-3.62-.1-4.08,1.41s.71,2.85,2.65,3.44,3.6.17,4.08-1.39S663.76,462.23,661.82,461.63Z"/>
              <path class="acd50c12-1cdd-4392-9e18-88add9116ab9" d="M653.35,471.12,664,472.31l-.85,2.38-4.32-.71c-1.25-.2-2.59-.45-3.64-.65v0c1,.54,2.1,1.2,3.22,1.88l3.73,2.28-.85,2.36-4.42-.7c-1.23-.19-2.34-.41-3.49-.66v0c1,.54,2.12,1.17,3.21,1.8l3.74,2.24-.81,2.27-8.92-6.07.86-2.41,4.53.69c1.06.17,2,.33,3.2.62v0c-1-.57-1.92-1.07-2.83-1.66l-3.89-2.45Z"/>
              <path class="acd50c12-1cdd-4392-9e18-88add9116ab9" d="M650.59,490.79l1.44-3.56-2.3-.93-1.61,4-1.8-.73,2.51-6.18,9.68,3.93-2.43,6-1.79-.72,1.53-3.78-2-.82-1.44,3.56Z"/>
              <path class="acd50c12-1cdd-4392-9e18-88add9116ab9" d="M654.66,496.28a20,20,0,0,1-1.08,3,5.27,5.27,0,0,1-2.13,2.75,2.64,2.64,0,0,1-2.39,0,2.8,2.8,0,0,1-1.6-2.73l0,0a2.65,2.65,0,0,1-2.35.48c-1.21-.18-2.59-.44-3-.42l1-2.21a12.58,12.58,0,0,1,2.52.32c1.3.28,1.81,0,2.21-.86l.3-.65-3.76-1.67,1-2.14Zm-5.06.31-.38.85c-.48,1.07-.22,1.95.61,2.32s1.58,0,2-1a5.3,5.3,0,0,0,.37-1Z"/>
              <path class="acd50c12-1cdd-4392-9e18-88add9116ab9" d="M641.29,506.44a6,6,0,0,0-1.77,2c-.49,1-.35,1.68.26,2s1.14,0,2.11-.9c1.32-1.27,2.69-1.85,4-1.16,1.59.8,2.14,2.75,1,4.95a6.53,6.53,0,0,1-1.68,2.14l-1.46-1.34a4.9,4.9,0,0,0,1.43-1.72c.46-.91.27-1.57-.21-1.81s-1.13.09-2.19,1.06c-1.44,1.34-2.69,1.68-4,1-1.56-.79-2.28-2.66-1-5.22a6.76,6.76,0,0,1,1.9-2.35Z"/>
              <path class="acd50c12-1cdd-4392-9e18-88add9116ab9" d="M641.35,519.41,642.7,517l1.74.95-3.86,7-1.74-1,1.37-2.5-7.42-4.07,1.14-2.08Z"/>
              <path class="acd50c12-1cdd-4392-9e18-88add9116ab9" d="M639.18,527.11a22.16,22.16,0,0,1-1.41,2.81,5.33,5.33,0,0,1-2.43,2.49,2.62,2.62,0,0,1-2.37-.28,2.79,2.79,0,0,1-1.28-2.9l0,0a2.6,2.6,0,0,1-2.39.2c-1.18-.31-2.51-.73-3-.76l1.23-2.08a12.5,12.5,0,0,1,2.46.61c1.26.42,1.8.22,2.3-.6l.36-.61-3.53-2.1,1.19-2Zm-5.06-.28-.47.8c-.6,1-.45,1.92.34,2.38s1.57.18,2.13-.75a5.29,5.29,0,0,0,.48-1Z"/>
              <path class="acd50c12-1cdd-4392-9e18-88add9116ab9" d="M632.61,538.21,627.55,535c-1.51-1-2.65-.89-3.3.12s-.31,2.09,1.24,3.09l5.06,3.25-1.28,2-4.92-3.17c-2.71-1.74-3.12-3.94-1.65-6.23s3.49-2.73,6.29-.93l4.9,3.15Z"/>
              <path class="acd50c12-1cdd-4392-9e18-88add9116ab9" d="M614.64,546.73a6.7,6.7,0,0,1,1.17-2.46c2.06-3,5-3.2,7.41-1.5,2.92,2,3.09,5.26,1.29,7.85a6.1,6.1,0,0,1-1.86,1.85L621.39,551a5.19,5.19,0,0,0,1.45-1.4,3.44,3.44,0,0,0-5.64-3.92,6,6,0,0,0-.84,1.81Z"/>
              <path class="acd50c12-1cdd-4392-9e18-88add9116ab9" d="M618.31,555.52l1.68-2.25,1.59,1.19-4.82,6.43-1.58-1.19,1.71-2.29-6.78-5.07,1.42-1.9Z"/>
              <path class="acd50c12-1cdd-4392-9e18-88add9116ab9" d="M613.69,564.77,609,561c-1.4-1.13-2.54-1.17-3.3-.23s-.53,2,.9,3.2l4.68,3.77-1.48,1.84-4.56-3.68c-2.5-2-2.67-4.26-1-6.38s3.76-2.34,6.35-.25l4.54,3.66Z"/>
              <path class="acd50c12-1cdd-4392-9e18-88add9116ab9" d="M607.46,572.14a21.21,21.21,0,0,1-1.9,2.51,5.32,5.32,0,0,1-2.84,2,2.67,2.67,0,0,1-2.28-.71,2.79,2.79,0,0,1-.73-3.08l0,0a2.66,2.66,0,0,1-2.39-.23,29.27,29.27,0,0,0-2.78-1.29l1.59-1.83a13.66,13.66,0,0,1,2.31,1c1.17.65,1.73.54,2.37-.17l.47-.54-3.1-2.7,1.54-1.76ZM602.54,571l-.61.7c-.78.89-.79,1.8-.1,2.4s1.51.46,2.24-.35a6.18,6.18,0,0,0,.64-.86Z"/>
              <path class="acd50c12-1cdd-4392-9e18-88add9116ab9" d="M591.87,580.66l2.62-2.81-1.81-1.69-2.93,3.14L588.34,578l4.54-4.88,7.64,7.12-4.4,4.72-1.41-1.33,2.77-3-1.58-1.48L593.28,582Z"/>
              <path class="acd50c12-1cdd-4392-9e18-88add9116ab9" d="M588.16,581.66a5.94,5.94,0,0,0-2.31,1.4c-.76.77-.85,1.49-.36,2s1.07.37,2.28-.2c1.65-.81,3.13-.94,4.21.13,1.26,1.26,1.18,3.28-.55,5a6.41,6.41,0,0,1-2.26,1.52l-1-1.72a4.82,4.82,0,0,0,1.89-1.2c.73-.73.74-1.41.36-1.79s-1.1-.26-2.41.34c-1.78.83-3.08.76-4.12-.27-1.25-1.24-1.35-3.24.67-5.28a6.77,6.77,0,0,1,2.54-1.65Z"/>
            </g>
            <g>
              <path class="acd50c12-1cdd-4392-9e18-88add9116ab9" d="M688.53,481a19.32,19.32,0,0,1-.84,3.09,5,5,0,0,1-1.84,2.75,3.1,3.1,0,0,1-2.65.26,3.33,3.33,0,0,1-2-1.72,4.9,4.9,0,0,1,.07-3.57c.11-.29.21-.55.31-.75L678,479.84l.77-2.21Zm-5.25.66a3.72,3.72,0,0,0-.32.73,1.75,1.75,0,0,0,.95,2.48c.91.31,1.67-.13,2.05-1.24a4.56,4.56,0,0,0,.24-1Z"/>
              <path class="acd50c12-1cdd-4392-9e18-88add9116ab9" d="M685.15,490.6a22.5,22.5,0,0,1-.92,3,5.38,5.38,0,0,1-2,2.87,2.63,2.63,0,0,1-2.38.11,2.75,2.75,0,0,1-1.75-2.64l0,0a2.63,2.63,0,0,1-2.33.61c-1.21-.12-2.6-.3-3-.26l.86-2.26a13.55,13.55,0,0,1,2.54.19c1.31.21,1.81-.09,2.16-1l.26-.66-3.84-1.47.84-2.19Zm-5,.58-.33.86c-.42,1.11-.12,2,.73,2.29s1.58-.09,2-1.1a5.19,5.19,0,0,0,.31-1Z"/>
              <path class="acd50c12-1cdd-4392-9e18-88add9116ab9" d="M680.51,502.7l-9.66-4,.91-2.19,9.65,4Z"/>
              <path class="acd50c12-1cdd-4392-9e18-88add9116ab9" d="M668.68,503.82,679.59,505l-1.05,2.37-4.55-.63c-1.28-.17-2.5-.36-3.79-.66l0,.05c1,.75,2,1.54,3,2.35l3.54,3-1,2.29-8.13-7.44Z"/>
              <path class="acd50c12-1cdd-4392-9e18-88add9116ab9" d="M673.63,518.11l-9.44-4.47,1-2.15,9.44,4.48Z"/>
              <path class="acd50c12-1cdd-4392-9e18-88add9116ab9" d="M672.16,521.17l-1.07,2.12-7.56-3.8-1.87,3.71-1.77-.89,2.93-5.83Z"/>
              <path class="acd50c12-1cdd-4392-9e18-88add9116ab9" d="M659.76,531.91l1.83-3.38-2.19-1.18-2,3.78-1.71-.92,3.16-5.86,9.2,4.95L665,535l-1.71-.92,1.94-3.59-1.91-1-1.83,3.38Z"/>
              <path class="acd50c12-1cdd-4392-9e18-88add9116ab9" d="M650.44,540.24a11.92,11.92,0,0,1,1.25-3.31,5.89,5.89,0,0,1,3.35-3,5,5,0,0,1,4,.64c3,1.76,3.43,4.94,1.71,7.9a7.23,7.23,0,0,1-1.9,2.25l-1.38-1.38a5.88,5.88,0,0,0,1.61-1.88,3.41,3.41,0,0,0-5.8-3.57,3.38,3.38,0,0,0-.45,1.09l1.89,1.1.81-1.4,1.6.93-2,3.36Z"/>
              <path class="acd50c12-1cdd-4392-9e18-88add9116ab9" d="M648.92,550.15l2-3.26-2.1-1.32-2.28,3.64-1.64-1,3.54-5.65,8.85,5.55-3.42,5.46-1.64-1,2.16-3.45-1.84-1.15-2,3.26Z"/>
              <path class="acd50c12-1cdd-4392-9e18-88add9116ab9" d="M645.47,551.82a6.14,6.14,0,0,0-2,1.81c-.61.9-.55,1.63,0,2s1.13.16,2.2-.64c1.47-1.1,2.9-1.51,4.16-.66,1.48,1,1.78,3,.41,5a6.28,6.28,0,0,1-1.92,1.92l-1.29-1.49a5,5,0,0,0,1.63-1.54c.57-.85.46-1.52,0-1.83s-1.13,0-2.3.79c-1.6,1.16-2.88,1.34-4.1.52-1.46-1-1.94-2.92-.35-5.3a6.94,6.94,0,0,1,2.18-2.11Z"/>
              <path class="acd50c12-1cdd-4392-9e18-88add9116ab9" d="M636.46,565.28l-1.72-2.2,1.46-2,6.51,8.78-1.84,2.49-10.33-3.59,1.51-2,2.63.94Zm-.15,3.18,2.17.79c.61.22,1.34.53,1.94.77v0c-.4-.5-.95-1.09-1.33-1.59l-1.42-1.81Z"/>
              <path class="acd50c12-1cdd-4392-9e18-88add9116ab9" d="M629.16,570.58l8.18,6.49-1.71,2.17-4.35-.68a30,30,0,0,1-3.86-.89l0,0a39.53,39.53,0,0,1,3.54,2.54l2.39,1.9-1.35,1.7-8.19-6.49,1.55-1.94,4.54.75a39.63,39.63,0,0,1,4,.87v0c-1.12-.81-2.29-1.7-3.63-2.76l-2.46-2Z"/>
              <path class="acd50c12-1cdd-4392-9e18-88add9116ab9" d="M629.63,586.48a21.34,21.34,0,0,1-1.91,2.56,6.72,6.72,0,0,1-3.63,2.53,4.62,4.62,0,0,1-4.14-1.22,5.29,5.29,0,0,1-2.09-4.07,7.47,7.47,0,0,1,2.11-4.53,20.47,20.47,0,0,1,1.86-1.94Zm-8-3.74a4.06,4.06,0,0,0-.57.59c-1.4,1.62-1.42,3.44.48,5.07a3,3,0,0,0,4.66-.35,4.77,4.77,0,0,0,.62-.87Z"/>
            </g>
            <g>
              <path class="acd50c12-1cdd-4392-9e18-88add9116ab9" d="M714.23,492.58a21,21,0,0,1-.85,3,5.34,5.34,0,0,1-1.91,2.91,2.65,2.65,0,0,1-2.38.17,2.77,2.77,0,0,1-1.8-2.6h0a2.67,2.67,0,0,1-2.31.66c-1.21-.09-2.61-.24-3-.19l.8-2.27a12.86,12.86,0,0,1,2.54.12c1.32.18,1.81-.13,2.14-1l.24-.67-3.87-1.37.79-2.21Zm-5,.7-.31.88c-.4,1.11-.08,2,.79,2.27s1.57-.13,1.95-1.15a5.23,5.23,0,0,0,.28-1Z"/>
              <path class="acd50c12-1cdd-4392-9e18-88add9116ab9" d="M702.87,506.24l1.39-3.58-2.31-.9-1.55,4-1.81-.7,2.41-6.21,9.74,3.78-2.33,6-1.81-.7,1.48-3.8-2-.79-1.4,3.59Z"/>
              <path class="acd50c12-1cdd-4392-9e18-88add9116ab9" d="M694.91,514.67a6.59,6.59,0,0,1,.62-2.64c1.4-3.33,4.2-4.17,6.94-3,3.28,1.39,4.12,4.5,2.9,7.41a6.22,6.22,0,0,1-1.43,2.19l-1.54-1.17a5.19,5.19,0,0,0,1.13-1.68,3.44,3.44,0,0,0-6.34-2.65,6.14,6.14,0,0,0-.45,1.95Z"/>
              <path class="acd50c12-1cdd-4392-9e18-88add9116ab9" d="M694.59,527.52c-3.11-1.43-4.13-4.18-2.86-7s4.18-3.49,6.89-2.24,4.13,4.1,2.84,6.9S697.21,528.72,694.59,527.52Zm3-6.92c-1.86-.85-3.57-.58-4.23.86s.33,2.91,2.17,3.76,3.55.64,4.23-.84S699.46,521.45,697.62,520.6Z"/>
              <path class="acd50c12-1cdd-4392-9e18-88add9116ab9" d="M685.13,535.66a11.74,11.74,0,0,1,1-3.38,5.85,5.85,0,0,1,3.17-3.16,5,5,0,0,1,4,.38c3.1,1.57,3.74,4.72,2.2,7.78a7.25,7.25,0,0,1-1.75,2.36l-1.47-1.29a5.74,5.74,0,0,0,1.49-2,3.17,3.17,0,0,0-1.47-4.61,3.14,3.14,0,0,0-4.53,1.41,3,3,0,0,0-.38,1.1l1.95,1,.72-1.44,1.65.83-1.74,3.48Z"/>
              <path class="acd50c12-1cdd-4392-9e18-88add9116ab9" d="M683.32,538.08l9.17,5-1.32,2.42-4.4.07a30.91,30.91,0,0,1-4-.21l0,0a38.88,38.88,0,0,1,3.92,1.91l2.68,1.46-1,1.9-9.17-5,1.18-2.17,4.61,0a38.12,38.12,0,0,1,4.11.18v0c-1.24-.61-2.55-1.28-4.05-2.1L682.28,540Z"/>
              <path class="acd50c12-1cdd-4392-9e18-88add9116ab9" d="M685.45,555.69l-9-5.22,1.18-2.05,9,5.22Z"/>
              <path class="acd50c12-1cdd-4392-9e18-88add9116ab9" d="M681.08,559.18l1.45-2.39,1.7,1-4.17,6.86-1.69-1,1.48-2.44-7.24-4.39,1.23-2Z"/>
              <path class="acd50c12-1cdd-4392-9e18-88add9116ab9" d="M677.45,568.79l-8.82-5.62,1.28-2,8.81,5.61Z"/>
              <path class="acd50c12-1cdd-4392-9e18-88add9116ab9" d="M666.06,576.7c-2.85-1.91-3.41-4.79-1.71-7.32s4.69-2.77,7.16-1.11,3.42,4.71,1.7,7.27S668.45,578.31,666.06,576.7Zm4.09-6.34c-1.69-1.14-3.43-1.15-4.31.17s-.14,2.93,1.54,4.06,3.4,1.2,4.31-.15S671.84,571.5,670.15,570.36Z"/>
              <path class="acd50c12-1cdd-4392-9e18-88add9116ab9" d="M660.1,575.89l8.45,6.13-1.62,2.23-4.37-.49a29.06,29.06,0,0,1-3.9-.72l0,0a39,39,0,0,1,3.64,2.39l2.47,1.79L663.48,589,655,582.89l1.46-2,4.57.56a39,39,0,0,1,4.05.7v0c-1.15-.76-2.36-1.6-3.74-2.6l-2.55-1.84Z"/>
              <path class="acd50c12-1cdd-4392-9e18-88add9116ab9" d="M648.76,599.56c-2.67-2.14-3-5.06-1.09-7.44s4.89-2.38,7.22-.52,3,5,1.1,7.38S651,601.36,648.76,599.56Zm4.61-6c-1.6-1.27-3.33-1.42-4.32-.18s-.38,2.91,1.21,4.17,3.29,1.48,4.3.21S655,594.84,653.37,593.57Z"/>
              <path class="acd50c12-1cdd-4392-9e18-88add9116ab9" d="M650.85,605l-4.14,4.87-1.47-1.26,2.6-3.06L646,604l-2.43,2.86-1.47-1.25,2.43-2.86-3.2-2.72,1.54-1.81Z"/>
            </g>
          </g>
          <g>
            <path class="acd50c12-1cdd-4392-9e18-88add9116ab9" d="M562.37,354.3a17.18,17.18,0,0,0-11-1.64,17.52,17.52,0,0,0-10,4.83l-.27-1.78a16.82,16.82,0,0,1,9.93-4.95,17.15,17.15,0,0,1,11,1.77Z"/>
            <path class="acd50c12-1cdd-4392-9e18-88add9116ab9" d="M550.64,362,545,360.64l-.18-2.33,17.94,4.52.22,2.72-17,7.37-.19-2.41,5.34-2.31Zm2.23,5.58,4.88-2.11c1.11-.48,2.13-.82,3.12-1.16v-.06c-1.05-.17-2.14-.37-3.23-.62l-5.19-1.31Z"/>
            <path class="acd50c12-1cdd-4392-9e18-88add9116ab9" d="M555.21,375.8c1.31,0,2.37,0,3.41-.05l0,2-2.08.09v.05a4.63,4.63,0,0,1,2.29,4.2c0,1.74-1.11,4.43-5.43,4.36l-7.51-.12,0-2.29,7.25.12c2,0,3.73-.69,3.77-2.85a3.26,3.26,0,0,0-2.29-3.11,3.1,3.1,0,0,0-1.06-.17l-7.57-.13,0-2.28Z"/>
            <path class="acd50c12-1cdd-4392-9e18-88add9116ab9" d="M561.56,394.35l-3.6-.28-.26,3.26L556,397.2l.26-3.27-6.77-.53c-1.55-.12-2.47.25-2.57,1.52a5.14,5.14,0,0,0,.06,1.34l-1.72,0a5.52,5.52,0,0,1-.16-2.05,3.2,3.2,0,0,1,1.16-2.39,4.65,4.65,0,0,1,3.33-.62l6.85.53.15-1.94,1.73.13-.15,1.95,3,.23Z"/>
            <path class="acd50c12-1cdd-4392-9e18-88add9116ab9" d="M544.79,399.32l12.49,1.56-.28,2.27-12.49-1.56Zm15.69,4.52a1.42,1.42,0,0,1,.35-2.81,1.4,1.4,0,0,1,1.24,1.6A1.35,1.35,0,0,1,560.48,403.84Z"/>
            <path class="acd50c12-1cdd-4392-9e18-88add9116ab9" d="M550.72,412.69l-1.66-.29,1.09-6.32,1.66.28Z"/>
            <path class="acd50c12-1cdd-4392-9e18-88add9116ab9" d="M559.08,419.24a33,33,0,0,1-.84,4.75c-.81,3.15-2.11,5.2-3.88,6.33a8,8,0,0,1-6.71.83,9.32,9.32,0,0,1-6-4.13c-1.18-2-1.36-4.83-.51-8.13a36.94,36.94,0,0,1,1.22-3.93Zm-15.57-1.65a14.19,14.19,0,0,0-.69,2.18c-1.2,4.68.76,7.9,5.35,9.07,4,1.05,7.12-.56,8.3-5.19a13,13,0,0,0,.44-2.63Z"/>
            <path class="acd50c12-1cdd-4392-9e18-88add9116ab9" d="M537.58,432l11.93,4-.73,2.17-11.93-4Zm14.47,7.55a1.42,1.42,0,0,1,.9-2.69,1.39,1.39,0,0,1,.9,1.81A1.36,1.36,0,0,1,552.05,439.58Z"/>
            <path class="acd50c12-1cdd-4392-9e18-88add9116ab9" d="M537.78,438.66a6,6,0,0,0-1.95,2.48c-.61,1.55-.12,2.58.85,3s1.81,0,3-1.33c1.58-1.81,3.13-2.35,4.53-1.8,1.89.75,2.84,2.88,1.85,5.4a6.37,6.37,0,0,1-1.86,2.59l-1.34-1.14a4.88,4.88,0,0,0,1.62-2.13,1.84,1.84,0,0,0-.82-2.59c-1-.38-1.68.15-2.86,1.45-1.58,1.73-3,2.37-4.75,1.68-2-.81-2.88-3-1.78-5.76a7.19,7.19,0,0,1,2.09-3Z"/>
            <path class="acd50c12-1cdd-4392-9e18-88add9116ab9" d="M528,456.4a8.47,8.47,0,0,1,.9-3.57c1.63-3.43,5-4.56,8.48-2.91a6.41,6.41,0,0,1,3.14,9,7.62,7.62,0,0,1-2,2.58l-1.37-1.23a5.34,5.34,0,0,0,1.68-2.13c1.23-2.61,0-4.93-2.39-6.06-2.63-1.25-5.06-.33-6.13,1.93a6.43,6.43,0,0,0-.64,2.8Z"/>
            <path class="acd50c12-1cdd-4392-9e18-88add9116ab9" d="M533.68,463.07c1.3.71,2.43,1.31,3.49,1.81l-1,1.75L534,465.5l0,.09a3.78,3.78,0,0,1,.73,4.38,2.59,2.59,0,0,1-.39.54l-1.89-1.05a3.4,3.4,0,0,0,.45-.64,3.21,3.21,0,0,0-1.08-4.11,6.56,6.56,0,0,0-.89-.61L525,460.85l1.1-2Z"/>
            <path class="acd50c12-1cdd-4392-9e18-88add9116ab9" d="M521.6,466.75l10.72,6.6-1.2,1.95-10.72-6.6ZM534,477.38a1.42,1.42,0,0,1,1.49-2.42,1.41,1.41,0,0,1,.47,2A1.37,1.37,0,0,1,534,477.38Z"/>
            <path class="acd50c12-1cdd-4392-9e18-88add9116ab9" d="M525.79,477.69c1,.77,1.92,1.38,2.8,1.94l-1.19,1.61-1.69-1.12-.05.06a4.35,4.35,0,0,1-.48,4.56,3.73,3.73,0,0,1-4.15,1.37l0,0a5.13,5.13,0,0,1,.48,2.1,4.23,4.23,0,0,1-.94,2.76c-1,1.34-3.33,2.68-6.85.09l-6-4.4,1.33-1.8,5.73,4.23c2,1.43,3.64,1.59,4.74.1a3,3,0,0,0-.07-3.41,3.71,3.71,0,0,0-.81-.83l-6.25-4.61,1.32-1.8,6.07,4.48c1.61,1.19,3.31,1.34,4.34-.06a3.13,3.13,0,0,0-.15-3.64,3.08,3.08,0,0,0-.8-.81l-6.1-4.51,1.32-1.8Z"/>
            <path class="acd50c12-1cdd-4392-9e18-88add9116ab9" d="M505,489.64l9.47,8.29-1.51,1.72-9.47-8.29Zm10.45,12.54a1.35,1.35,0,0,1-.1-2,1.37,1.37,0,0,1,2-.12,1.4,1.4,0,0,1,.13,2A1.36,1.36,0,0,1,515.4,502.18Z"/>
            <path class="acd50c12-1cdd-4392-9e18-88add9116ab9" d="M507.23,500.93c.92.92,1.7,1.65,2.49,2.32l-1.43,1.44-1.56-1.37,0,0a4.64,4.64,0,0,1-1.25,4.62c-1.23,1.23-3.87,2.42-6.93-.62l-5.33-5.29,1.61-1.63,5.14,5.11c1.44,1.43,3.17,2.09,4.69.55a3.36,3.36,0,0,0-.14-4.68l-5.37-5.33,1.61-1.62Z"/>
            <path class="acd50c12-1cdd-4392-9e18-88add9116ab9" d="M484.88,509.32l1.17,1.09.06-.05a4.68,4.68,0,0,1,1.71-3.93,3.59,3.59,0,0,1,5.27.25c2,2.31,1,5.33-2.7,8.48l.16.19a2.6,2.6,0,0,0,4.07.36,6.28,6.28,0,0,0,1.88-2.85l1.38.81a7.78,7.78,0,0,1-2.42,3.54c-2.92,2.5-5.34,1.12-7-.8l-3.06-3.58a17.32,17.32,0,0,0-2.12-2.15Zm4.43,4.66c1.94-1.58,3.8-3.76,2.21-5.62a2,2,0,0,0-3.06-.25,3.13,3.13,0,0,0-.94,3.58,2.32,2.32,0,0,0,.37.63Z"/>
            <path class="acd50c12-1cdd-4392-9e18-88add9116ab9" d="M487.86,527.57l-2.17-2.89-2.62,2L482,525.25l2.62-2-4.07-5.42c-.94-1.25-1.82-1.69-2.84-.93a5.52,5.52,0,0,0-1,.92l-1.11-1.31a5.62,5.62,0,0,1,1.43-1.47,3.19,3.19,0,0,1,2.56-.71,4.65,4.65,0,0,1,2.67,2.09l4.12,5.49,1.56-1.17,1.05,1.39-1.56,1.17,1.81,2.42Z"/>
            <path class="acd50c12-1cdd-4392-9e18-88add9116ab9" d="M473,518.28l7.08,10.4L478.23,530l-7.08-10.39ZM480,533a1.41,1.41,0,0,1,2.34-1.59,1.39,1.39,0,0,1-.38,2A1.34,1.34,0,0,1,480,533Z"/>
            <path class="acd50c12-1cdd-4392-9e18-88add9116ab9" d="M461.09,533.27c-2.37-4-.63-7.39,2-8.95,2.93-1.73,6.47-.92,8.5,2.5,2.14,3.62,1,7.15-2,8.93S463.05,536.58,461.09,533.27Zm8.52-5.2c-1.4-2.37-3.83-3.36-5.75-2.22s-2.24,3.72-.8,6.16c1.09,1.83,3.39,3.62,5.71,2.24S470.83,530.12,469.61,528.07Z"/>
            <path class="acd50c12-1cdd-4392-9e18-88add9116ab9" d="M458.88,537.56c.56,1.17,1.05,2.12,1.57,3l-1.83.88-1-1.82,0,0a4.64,4.64,0,0,1-2.73,3.94c-1.57.75-4.46,1-6.32-2.91l-3.25-6.77,2.06-1,3.14,6.54c.87,1.82,2.28,3,4.23,2.09a3.25,3.25,0,0,0,1.75-3.44,3.35,3.35,0,0,0-.32-1l-3.27-6.82,2.06-1Z"/>
            <path class="acd50c12-1cdd-4392-9e18-88add9116ab9" d="M442.29,531.71a17.62,17.62,0,0,0,1,11.09,17.25,17.25,0,0,0,7,8.55l-1.64.66a16.6,16.6,0,0,1-7.13-8.52,16.92,16.92,0,0,1-.83-11.11Z"/>
          </g>
          <g id="ef00859c-925a-4c6d-89c9-dfe9e38ed102" data-name="Große Titel">
            <g>
              <path class="acd50c12-1cdd-4392-9e18-88add9116ab9" d="M602.84,291.09l-22.61,8.81-1.6-4.13,22.6-8.81Z"/>
              <path class="acd50c12-1cdd-4392-9e18-88add9116ab9" d="M593.83,300.87c1.92-.6,3.53-1.13,4.94-1.69l1.15,3.72-2.44,1,0,.11a6.29,6.29,0,0,1,4.54,4.43c.91,2.92,0,6.53-5.33,8.18l-9.94,3.09-1.31-4.23,9.45-2.94c2.41-.75,4-2.21,3.24-4.51a3.71,3.71,0,0,0-3.51-2.53,4.43,4.43,0,0,0-1.42.25l-9.84,3.06-1.32-4.26Z"/>
              <path class="acd50c12-1cdd-4392-9e18-88add9116ab9" d="M610.89,323.93,606,325.05l.94,4.1-3.23.75-.94-4.11-7.54,1.73c-2.07.48-3,1.29-2.65,2.94a6.64,6.64,0,0,0,.59,1.63l-3.28.83a9.87,9.87,0,0,1-1.14-3,5.13,5.13,0,0,1,.55-4c.78-1.14,2.22-1.92,4.47-2.43l8-1.85-.56-2.45,3.22-.75.57,2.46,3.86-.89Z"/>
              <path class="acd50c12-1cdd-4392-9e18-88add9116ab9" d="M598.43,338.05c-3.11.59-4.08,3.26-3.65,6a13.11,13.11,0,0,0,1.53,4.68l-2.92,1.11a16.3,16.3,0,0,1-2-5.88c-.88-5.62,2.06-9.46,7.36-10.29,4.8-.74,9.77,1.47,10.63,7s-3.46,8.19-7.26,8.78a11.91,11.91,0,0,1-1.88.15Zm4.24,7.14c1.61-.22,4.13-1.34,3.68-4.26-.42-2.7-3.06-3.46-4.86-3.36Z"/>
              <path class="acd50c12-1cdd-4392-9e18-88add9116ab9" d="M605,353.66c2.37-.2,4-.37,5.62-.61l.32,3.84-3.33.42v.14a5.22,5.22,0,0,1,4.12,4.47,4.44,4.44,0,0,1,0,1l-4.16.35a6.68,6.68,0,0,0,0-1.31,3.91,3.91,0,0,0-3.66-3.67,7.7,7.7,0,0,0-1.38,0l-9,.74-.36-4.41Z"/>
              <path class="acd50c12-1cdd-4392-9e18-88add9116ab9" d="M594.8,380.28a12.69,12.69,0,0,1-1-5c-.09-5.47,3.35-9.09,8.78-9.17,5.26-.08,9.42,3.45,9.52,9.61a11,11,0,0,1-.77,4.29l-3.32-.74a7.74,7.74,0,0,0,.63-3.36c0-3.38-2.57-5.36-5.77-5.27-3.6.06-5.61,2.43-5.57,5.45a8.81,8.81,0,0,0,.74,3.48Z"/>
              <path class="acd50c12-1cdd-4392-9e18-88add9116ab9" d="M598.41,399.41c-2.08-.14-3.81-.19-5.26-.21l.26-3.88,2.68,0v-.07a6.33,6.33,0,0,1-2.68-5.81c.21-3.19,2.31-6,8-5.59l10.28.68-.3,4.42-9.52-.64c-2.91-.19-4.84.62-5,3a3.73,3.73,0,0,0,2.14,3.54,4,4,0,0,0,1.35.34l10.56.71-.29,4.41Z"/>
              <path class="acd50c12-1cdd-4392-9e18-88add9116ab9" d="M617.82,407.24l-.6,4.42-25.32-3.43.6-4.43Z"/>
              <path class="acd50c12-1cdd-4392-9e18-88add9116ab9" d="M612.37,422.21l-4.92-.92-.78,4.14-3.25-.61.78-4.14-7.61-1.43c-2.09-.4-3.29,0-3.61,1.63a7,7,0,0,0-.1,1.73l-3.34-.55a9.68,9.68,0,0,1,.17-3.23,5.1,5.1,0,0,1,2.12-3.48c1.16-.74,2.8-.87,5.06-.44l8.11,1.52.46-2.48,3.26.62-.47,2.47,3.89.73Z"/>
              <path class="acd50c12-1cdd-4392-9e18-88add9116ab9" d="M589.84,441.82c-2-.54-3.7-.92-5.11-1.22l1-3.76,2.63.48v-.07a6.33,6.33,0,0,1-1.5-6.21c.83-3.1,3.43-5.42,9-3.94l9.95,2.67-1.15,4.28-9.22-2.48c-2.81-.75-4.86-.33-5.47,1.93a3.72,3.72,0,0,0,1.42,3.88,4,4,0,0,0,1.25.6l10.23,2.74L601.7,445Z"/>
              <path class="acd50c12-1cdd-4392-9e18-88add9116ab9" d="M594.43,448.88c2.24.79,3.85,1.32,5.38,1.74l-1.28,3.64-3.2-1-.05.14a5.24,5.24,0,0,1,1.94,5.76,4.65,4.65,0,0,1-.45.95l-3.94-1.39a6.21,6.21,0,0,0,.57-1.18,3.91,3.91,0,0,0-1.84-4.84,6.94,6.94,0,0,0-1.25-.59l-8.55-3,1.47-4.17Z"/>
              <path class="acd50c12-1cdd-4392-9e18-88add9116ab9" d="M575,466l1.9.51,0-.1a6.49,6.49,0,0,1-.07-5.68,5.2,5.2,0,0,1,7-3c4.06,1.77,4.54,6.26,1.92,12.19l.26.11c1.06.46,3,.79,4.23-2.05a9.27,9.27,0,0,0,.7-4.84l3,.36a12.57,12.57,0,0,1-1.11,6.43c-2.24,5.15-6.15,5.21-9.65,3.69l-5.81-2.53a27.8,27.8,0,0,0-4-1.46Zm8.09,2.89c1.31-2.84,1.88-5.85-.56-6.91a2.32,2.32,0,0,0-3.32,1.3,3.6,3.6,0,0,0,.83,4.13,3,3,0,0,0,.84.52Z"/>
              <path class="acd50c12-1cdd-4392-9e18-88add9116ab9" d="M594.09,485.27l-2,4-22.74-11.68,2-4Z"/>
              <path class="acd50c12-1cdd-4392-9e18-88add9116ab9" d="M553.75,504.32a15.5,15.5,0,0,1,2.55-5.82c4.25-6.43,10.86-7.67,17-3.6,6.67,4.41,7.64,11.69,3.55,17.88a14,14,0,0,1-4.16,4.33l-2.41-2.76a11.71,11.71,0,0,0,3.4-3.45c2.72-4.11,2.11-8.79-2.76-12-4.44-2.94-9-2.21-12,2.24a12.51,12.51,0,0,0-1.91,4.52Z"/>
              <path class="acd50c12-1cdd-4392-9e18-88add9116ab9" d="M547.84,524.88c-5-4-4.43-9.37-1.63-12.85,3.11-3.88,8.16-4.71,12.54-1.19s4.87,8.77,1.56,12.89S552,528.22,547.84,524.88ZM556,514.47c-2.64-2.12-5.66-2.43-7.36-.32s-.74,4.89,2,7.1c2.13,1.72,5.34,2.72,7.23.37S558.25,516.3,556,514.47Z"/>
              <path class="acd50c12-1cdd-4392-9e18-88add9116ab9" d="M547.4,530.76c1.41,1.44,2.63,2.62,3.76,3.62l-2.71,2.68-2-1.72-.08.08a6.06,6.06,0,0,1-1.74,5.92,5.06,5.06,0,0,1-5.74,1.1l-.05,0a6.67,6.67,0,0,1,0,3.08,5.81,5.81,0,0,1-1.78,3.22c-2.07,2.05-5.57,2.72-9.51-1.28l-7.26-7.36,3.08-3,6.8,6.89c2,2.08,4,2.6,5.49,1.11a3.36,3.36,0,0,0,.56-3.84,5.67,5.67,0,0,0-.88-1.2L528,532.59l3.07-3,7.13,7.22c1.72,1.75,3.63,2.3,5.09.86a3.47,3.47,0,0,0,.49-4,3.77,3.77,0,0,0-.84-1.21L535.67,525l3.08-3Z"/>
              <path class="acd50c12-1cdd-4392-9e18-88add9116ab9" d="M524.06,552.06c1.41,1.82,2.62,3.25,3.69,4.51L524.69,559l-1.83-2-.06,0a6.82,6.82,0,0,1-2.84,6.14c-3.18,2.47-7.94,1.81-11.31-2.51-3.89-5-2.62-9.87.53-12.32a5.78,5.78,0,0,1,5.33-1.19l.06,0L509,539.93l3.5-2.72Zm-6.17-.71a4.27,4.27,0,0,0-.87-.88,4,4,0,0,0-5-.05c-2.21,1.72-2.08,4.59,0,7.31,1.91,2.44,4.65,3.5,6.89,1.75a4.58,4.58,0,0,0,.57-6Z"/>
              <path class="acd50c12-1cdd-4392-9e18-88add9116ab9" d="M501.42,563.65c-1.8-2.61-4.63-2.42-7-.91a13.36,13.36,0,0,0-3.66,3.29l-2.2-2.22a16.83,16.83,0,0,1,4.57-4.22c4.79-3.07,9.49-1.94,12.39,2.58,2.62,4.09,2.61,9.53-2.12,12.57s-8.89.14-11-3.1a10.17,10.17,0,0,1-.89-1.66Zm-4.81,6.76c.84,1.38,2.89,3.24,5.37,1.64,2.3-1.47,1.93-4.19,1.11-5.8Z"/>
              <path class="acd50c12-1cdd-4392-9e18-88add9116ab9" d="M490.36,587.72l-2.39-4.4-3.7,2-1.58-2.91,3.7-2-3.69-6.8c-1-1.87-2.05-2.57-3.54-1.76a6.93,6.93,0,0,0-1.42,1l-1.67-2.94a9.66,9.66,0,0,1,2.61-1.91,5.11,5.11,0,0,1,4-.55c1.3.44,2.43,1.62,3.53,3.65l3.94,7.24,2.21-1.2,1.58,2.91-2.21,1.2,1.89,3.48Z"/>
              <path class="acd50c12-1cdd-4392-9e18-88add9116ab9" d="M473.42,579.5c-1.41-2.84-4.24-3.06-6.79-1.9a13.14,13.14,0,0,0-4.1,2.74l-1.86-2.52a16.68,16.68,0,0,1,5.13-3.52c5.18-2.35,9.67-.56,11.89,4.33,2,4.42,1.21,9.81-3.9,12.13s-8.82-1.13-10.41-4.64a10.8,10.8,0,0,1-.64-1.76Zm-5.73,6c.63,1.49,2.39,3.61,5.08,2.39,2.49-1.13,2.51-3.87,1.93-5.58Z"/>
              <path class="acd50c12-1cdd-4392-9e18-88add9116ab9" d="M460.22,590.51c.67,1.91,1.26,3.49,1.86,4.89l-3.68,1.28-1.07-2.41-.1,0A6.31,6.31,0,0,1,453,599c-2.89,1-6.53.19-8.36-5l-3.43-9.82,4.19-1.46,3.26,9.35c.83,2.38,2.34,3.87,4.62,3.08a3.75,3.75,0,0,0,2.41-3.59,4.61,4.61,0,0,0-.31-1.42L452,580.36l4.22-1.47Z"/>
              <path class="acd50c12-1cdd-4392-9e18-88add9116ab9" d="M424.34,589.09a12.89,12.89,0,0,1,4.59-2.11c5.3-1.35,9.62,1.15,11,6.41,1.3,5.1-1.17,10-7.13,11.49a11,11,0,0,1-4.36.26l-.06-3.4a8,8,0,0,0,3.42-.17c3.28-.84,4.62-3.75,3.79-6.84-.9-3.49-3.67-4.9-6.6-4.15a8.7,8.7,0,0,0-3.22,1.53Z"/>
              <path class="acd50c12-1cdd-4392-9e18-88add9116ab9" d="M419.52,597.12c-.65-3.1-3.33-4-6.1-3.55a13.27,13.27,0,0,0-4.65,1.61l-1.16-2.9a16.47,16.47,0,0,1,5.84-2.11c5.61-1,9.51,1.9,10.42,7.18.83,4.79-1.3,9.8-6.83,10.76s-8.25-3.32-8.91-7.12a11.35,11.35,0,0,1-.18-1.87Zm-7.06,4.37c.24,1.6,1.4,4.1,4.31,3.6,2.7-.47,3.41-3.11,3.28-4.92Z"/>
            </g>
            <g>
              <path class="acd50c12-1cdd-4392-9e18-88add9116ab9" d="M314.35,595.62l8.87,2.25L325,591l-9.91-2.51.9-3.53,14.2,3.61-6,23.52-13.68-3.48.9-3.52,9.39,2.38,1.54-6.07-8.86-2.25Z"/>
              <path class="acd50c12-1cdd-4392-9e18-88add9116ab9" d="M308.1,595.63c-.71,1.88-1.28,3.48-1.71,4.93l-3.57-1.35.75-2.49-.1,0a6.07,6.07,0,0,1-6.11.88,5.05,5.05,0,0,1-3.4-4.74l-.07,0a6.64,6.64,0,0,1-2.79,1.29,5.9,5.9,0,0,1-3.67-.27c-2.73-1-4.79-3.93-2.8-9.18l3.66-9.66,4,1.52-3.43,9.06c-1,2.73-.7,4.7,1.28,5.45a3.38,3.38,0,0,0,3.73-1.09,6.53,6.53,0,0,0,.72-1.31l3.72-9.82,4,1.52-3.59,9.5c-.87,2.29-.57,4.25,1.35,5a3.45,3.45,0,0,0,3.85-1.23,3.87,3.87,0,0,0,.75-1.26l3.67-9.69,4,1.52Z"/>
              <path class="acd50c12-1cdd-4392-9e18-88add9116ab9" d="M265.38,573.09c3-5.72,8.32-6.19,12.28-4.13,4.41,2.29,6.22,7.08,3.63,12.06s-7.63,6.51-12.33,4.07S262.92,577.82,265.38,573.09ZM277.19,579c1.56-3,1.26-6-1.13-7.28s-4.95.24-6.58,3.37c-1.26,2.43-1.61,5.77,1.07,7.16S275.84,581.6,277.19,579Z"/>
              <path class="acd50c12-1cdd-4392-9e18-88add9116ab9" d="M250.25,579.68l2.63-4.25-3.58-2.22,1.75-2.81,3.58,2.22L258.7,566c1.12-1.81,1.22-3.06-.22-3.95a6.47,6.47,0,0,0-1.58-.73l1.72-2.91a9.68,9.68,0,0,1,2.95,1.32,5.11,5.11,0,0,1,2.49,3.24c.26,1.35-.2,2.92-1.42,4.88l-4.34,7,2.14,1.33L258.69,579l-2.14-1.32-2.08,3.36Z"/>
              <path class="acd50c12-1cdd-4392-9e18-88add9116ab9" d="M239.18,572.21a2.34,2.34,0,0,1,3.42-.52,2.31,2.31,0,0,1,.66,3.34,2.48,2.48,0,0,1-4.08-2.82Zm16.63-15.77-10,14.42-3.67-2.54,10-14.42Z"/>
              <path class="acd50c12-1cdd-4392-9e18-88add9116ab9" d="M229.62,547.82c4-5,9.36-4.47,12.85-1.69,3.89,3.1,4.74,8.15,1.24,12.54s-8.74,4.91-12.88,1.61S226.31,552,229.62,547.82Zm10.45,8.09c2.11-2.65,2.4-5.68.29-7.36s-4.89-.73-7.09,2c-1.71,2.14-2.7,5.35-.34,7.24S238.25,558.19,240.07,555.91Z"/>
              <path class="acd50c12-1cdd-4392-9e18-88add9116ab9" d="M224,547.35c-1.4,1.46-2.55,2.7-3.52,3.87l-2.8-2.7,1.66-2-.07-.08a6.3,6.3,0,0,1-6.12-1.68c-2.21-2.12-3.12-5.75.72-9.74l7.21-7.5,3.19,3.06-6.86,7.14c-1.74,1.82-2.39,3.84-.65,5.52a3.71,3.71,0,0,0,4.29.52,4.62,4.62,0,0,0,1.12-.91l7.14-7.43,3.22,3.1Z"/>
              <path class="acd50c12-1cdd-4392-9e18-88add9116ab9" d="M211.52,516.69l-1.28,1.49.07.08a6.53,6.53,0,0,1,5.17,2.37,5.21,5.21,0,0,1-.32,7.59c-3.34,2.9-7.6,1.41-11.83-3.5l-.21.19c-.87.76-2,2.37,0,4.7a9.26,9.26,0,0,0,4.08,2.7l-1.61,2.55a12.64,12.64,0,0,1-5.33-3.76c-3.69-4.24-2.06-7.8.81-10.31l4.78-4.16a28.38,28.38,0,0,0,3-3Zm-6.09,6.06c2,2.41,4.49,4.21,6.49,2.46a2.32,2.32,0,0,0,.25-3.55,3.61,3.61,0,0,0-4.09-1,3.94,3.94,0,0,0-.83.53Z"/>
              <path class="acd50c12-1cdd-4392-9e18-88add9116ab9" d="M185.92,525.69l-2.71-3.55,20.29-15.53,2.71,3.54Z"/>
              <path class="acd50c12-1cdd-4392-9e18-88add9116ab9" d="M186,481.08a15.27,15.27,0,0,1,4.16,4.8c4,6.59,2.28,13.09-4,16.91-6.84,4.14-13.84,1.89-17.68-4.45a14.16,14.16,0,0,1-2.13-5.62l3.53-1a11.68,11.68,0,0,0,1.65,4.55c2.56,4.22,7.05,5.67,12,2.65,4.56-2.76,5.87-7.21,3.11-11.77a12.4,12.4,0,0,0-3.27-3.66Z"/>
              <path class="acd50c12-1cdd-4392-9e18-88add9116ab9" d="M169.92,466.91c5.8-2.8,10.37,0,12.31,4,2.17,4.47.75,9.4-4.3,11.84s-10,.65-12.31-4.11S165.13,469.24,169.92,466.91Zm5.92,11.82c3-1.48,4.62-4.08,3.45-6.51-1.1-2.27-4.1-2.77-7.28-1.24-2.46,1.19-4.75,3.66-3.43,6.38S173.22,480,175.84,478.73Z"/>
              <path class="acd50c12-1cdd-4392-9e18-88add9116ab9" d="M164.81,464c-1.91.66-3.49,1.25-4.88,1.85l-1.26-3.61,2.39-1,0-.1a6.07,6.07,0,0,1-4.6-4.12,5.07,5.07,0,0,1,1.47-5.66l0-.06a6.77,6.77,0,0,1-2.79-1.32,5.89,5.89,0,0,1-2.14-3c-1-2.76-.06-6.2,5.25-8l9.76-3.39,1.42,4.08-9.15,3.18c-2.75,1-4.06,2.47-3.36,4.48a3.38,3.38,0,0,0,3.23,2.16,6.58,6.58,0,0,0,1.46-.28l9.93-3.45,1.42,4.08-9.59,3.33c-2.31.81-3.63,2.29-2.95,4.23a3.47,3.47,0,0,0,3.42,2.17,3.89,3.89,0,0,0,1.44-.24l9.79-3.4,1.42,4.08Z"/>
              <path class="acd50c12-1cdd-4392-9e18-88add9116ab9" d="M155.61,433.75c-2.25.5-4.07,1-5.67,1.39l-.83-3.8,2.59-.78,0-.07a6.84,6.84,0,0,1-4.31-5.22c-.86-3.94,1.8-7.95,7.15-9.12,6.19-1.35,10,1.9,10.89,5.8a5.78,5.78,0,0,1-1.23,5.32v.07l8.86-1.94.95,4.32Zm3.3-5.26a4.37,4.37,0,0,0,1.17-.4,4,4,0,0,0,2.19-4.46c-.6-2.74-3.24-3.86-6.62-3.12-3,.66-5.16,2.68-4.55,5.46a4.14,4.14,0,0,0,4.05,3.17,4.25,4.25,0,0,0,1.13-.07Z"/>
              <path class="acd50c12-1cdd-4392-9e18-88add9116ab9" d="M154.93,408.33c3.13-.49,4.18-3.13,3.83-5.91a13.22,13.22,0,0,0-1.38-4.73l3-1a16.41,16.41,0,0,1,1.83,5.94c.7,5.64-2.35,9.4-7.67,10.06-4.83.6-9.73-1.77-10.42-7.34s3.71-8.08,7.53-8.55a11.55,11.55,0,0,1,1.88-.09Zm-4-7.26c-1.61.17-4.16,1.21-3.8,4.14.34,2.71,3,3.55,4.75,3.51Z"/>
              <path class="acd50c12-1cdd-4392-9e18-88add9116ab9" d="M138,388l5-.26-.22-4.2,3.31-.18.22,4.21,7.73-.4c2.12-.11,3.2-.74,3.11-2.43a6.55,6.55,0,0,0-.3-1.72l3.37-.24a9.46,9.46,0,0,1,.6,3.17,5.13,5.13,0,0,1-1.24,3.89c-1,1-2.52,1.5-4.82,1.62l-8.23.42.13,2.52-3.31.17-.13-2.51-3.95.2Z"/>
              <path class="acd50c12-1cdd-4392-9e18-88add9116ab9" d="M152.7,376.25c3.17-.05,4.58-2.51,4.63-5.32a13.1,13.1,0,0,0-.7-4.87l3.07-.59a16.3,16.3,0,0,1,1,6.14c-.1,5.68-3.66,9-9,8.87-4.86-.09-9.38-3.12-9.27-8.74s4.81-7.47,8.66-7.4a11.47,11.47,0,0,1,1.87.17Zm-3-7.76c-1.61-.07-4.29.61-4.35,3.56,0,2.73,2.42,3.93,4.21,4.14Z"/>
              <path class="acd50c12-1cdd-4392-9e18-88add9116ab9" d="M148.42,359.6c-2-.22-3.69-.36-5.2-.42l.42-3.86,2.63.06v-.1a6.34,6.34,0,0,1-2.41-5.88c.33-3,2.64-6,8.15-5.38l10.35,1.11-.48,4.41-9.84-1.06c-2.51-.28-4.5.45-4.76,2.85A3.7,3.7,0,0,0,149.5,355a4.49,4.49,0,0,0,1.41.34l10.24,1.1-.48,4.44Z"/>
              <path class="acd50c12-1cdd-4392-9e18-88add9116ab9" d="M165.1,327.78a12.94,12.94,0,0,1-.07,5.05C164,338.2,159.87,341,154.54,340c-5.16-1-8.5-5.33-7.33-11.37a10.94,10.94,0,0,1,1.64-4.05L152,326a7.92,7.92,0,0,0-1.32,3.16c-.64,3.32,1.41,5.78,4.56,6.35,3.54.69,6-1.21,6.58-4.18a8.72,8.72,0,0,0,0-3.56Z"/>
              <path class="acd50c12-1cdd-4392-9e18-88add9116ab9" d="M159.9,320c3.08.74,5.06-1.28,5.81-4a13.11,13.11,0,0,0,.54-4.89l3.12.19a16.5,16.5,0,0,1-.59,6.19c-1.53,5.48-5.79,7.77-11,6.33-4.68-1.3-8.29-5.37-6.79-10.78s6.54-6,10.25-5a12.55,12.55,0,0,1,1.76.64Zm-.92-8.25c-1.55-.47-4.31-.49-5.1,2.35-.74,2.64,1.35,4.42,3,5.07Z"/>
            </g>
            <g>
              <path class="acd50c12-1cdd-4392-9e18-88add9116ab9" d="M237.64,204.1a12.14,12.14,0,0,0,5.6-2.32c2.27-1.72,2.72-3.74,1.52-5.31s-2.74-1.58-5.88-.6c-4,1.28-7.37,1.13-9.48-1.65-2.4-3.15-1.59-7.56,2.59-10.74a12.89,12.89,0,0,1,5.38-2.56l1.3,3.49a10.32,10.32,0,0,0-4.54,2c-2.23,1.7-2.29,3.65-1.44,4.77,1.13,1.49,2.77,1.32,6.12.37,4.31-1.29,7.23-.84,9.34,1.94,2.35,3.09,2,7.57-2.93,11.36a14.35,14.35,0,0,1-6.14,2.76Z"/>
              <path class="acd50c12-1cdd-4392-9e18-88add9116ab9" d="M264.86,180.39c3.43,5.46,1.12,10.31-2.67,12.68-4.2,2.64-9.25,1.77-12.24-3s-1.73-9.88,2.75-12.69S262,175.88,264.86,180.39Zm-11.09,7.18c1.8,2.86,4.56,4.15,6.84,2.71s2.31-4.38.44-7.37c-1.46-2.31-4.16-4.32-6.72-2.71S252.22,185.1,253.77,187.57Z"/>
              <path class="acd50c12-1cdd-4392-9e18-88add9116ab9" d="M284.18,179.82a12.91,12.91,0,0,1-4,3.07c-4.86,2.51-9.63,1-12.12-3.8s-1.08-10,4.39-12.79a11.19,11.19,0,0,1,4.19-1.23l.81,3.31a7.73,7.73,0,0,0-3.29.93c-3,1.55-3.66,4.68-2.17,7.51,1.65,3.2,4.67,4,7.36,2.57a8.54,8.54,0,0,0,2.79-2.21Z"/>
              <path class="acd50c12-1cdd-4392-9e18-88add9116ab9" d="M282.66,156.6a2.48,2.48,0,1,1-3.24-1.2A2.35,2.35,0,0,1,282.66,156.6ZM287.43,179l-7.09-16,4.08-1.81,7.09,16Z"/>
              <path class="acd50c12-1cdd-4392-9e18-88add9116ab9" d="M305.14,171.87l-.95-1.72-.1,0a6.52,6.52,0,0,1-4,4,5.2,5.2,0,0,1-7-3c-1.53-4.15,1.38-7.61,7.47-9.81l-.1-.27c-.39-1.08-1.49-2.71-4.4-1.64a9.36,9.36,0,0,0-4,2.84l-1.8-2.4a12.64,12.64,0,0,1,5.41-3.64c5.27-1.95,8,.84,9.34,4.42l2.19,5.95a27.59,27.59,0,0,0,1.7,3.86ZM301.63,164c-3,1-5.53,2.69-4.61,5.19a2.34,2.34,0,0,0,3.24,1.5,3.6,3.6,0,0,0,2.41-3.46,3.47,3.47,0,0,0-.2-1Z"/>
              <path class="acd50c12-1cdd-4392-9e18-88add9116ab9" d="M305.82,144.76l4.27-1.28,7.3,24.5-4.28,1.27Z"/>
              <path class="acd50c12-1cdd-4392-9e18-88add9116ab9" d="M347.5,160.73a15.47,15.47,0,0,1-6,2.17c-7.58,1.37-13-2.55-14.36-9.81-1.41-7.87,3.19-13.6,10.48-14.92a14.09,14.09,0,0,1,6,0l-.33,3.64a11.83,11.83,0,0,0-4.85-.07c-4.85.87-7.81,4.55-6.77,10.29.94,5.25,4.63,8.06,9.88,7.11a12.42,12.42,0,0,0,4.58-1.74Z"/>
              <path class="acd50c12-1cdd-4392-9e18-88add9116ab9" d="M366.44,150.78c.55,6.42-3.72,9.68-8.17,10.07-4.95.43-9-2.65-9.53-8.25s3-9.58,8.24-10S366,145.47,366.44,150.78Zm-13.15,1.32c.29,3.37,2.16,5.77,4.85,5.54,2.51-.21,4.06-2.84,3.75-6.36-.23-2.72-1.72-5.74-4.74-5.48S353,149.19,353.29,152.1Z"/>
              <path class="acd50c12-1cdd-4392-9e18-88add9116ab9" d="M371,147.05c0-2,.07-3.7,0-5.22l3.82.11.1,2.6H375a6,6,0,0,1,5.48-2.83,5.06,5.06,0,0,1,4.77,3.37h.07a6.68,6.68,0,0,1,2.22-2.13,5.84,5.84,0,0,1,3.56-.94c2.91.08,5.8,2.14,5.65,7.76l-.3,10.32-4.32-.12.28-9.68c.08-2.91-.88-4.67-3-4.73a3.38,3.38,0,0,0-3.16,2.25,6.73,6.73,0,0,0-.26,1.47l-.3,10.51-4.31-.13.28-10.14c.07-2.45-.85-4.2-2.9-4.26a3.45,3.45,0,0,0-3.24,2.43,3.69,3.69,0,0,0-.29,1.43l-.29,10.36-4.32-.12Z"/>
              <path class="acd50c12-1cdd-4392-9e18-88add9116ab9" d="M402.51,149.18c.34-2.28.54-4.14.71-5.79l3.84.56-.17,2.7H407a6.84,6.84,0,0,1,6.39-2.19c4,.59,6.8,4.49,6,9.9-.92,6.27-5.32,8.72-9.27,8.14a5.77,5.77,0,0,1-4.54-3h-.07l-1.32,9-4.38-.65Zm3.75,4.95a4.63,4.63,0,0,0,0,1.23,4,4,0,0,0,3.4,3.63c2.77.4,4.75-1.67,5.25-5.09.45-3.06-.68-5.78-3.49-6.19a4.14,4.14,0,0,0-4.4,2.67,4.23,4.23,0,0,0-.34,1.08Z"/>
              <path class="acd50c12-1cdd-4392-9e18-88add9116ab9" d="M426.55,157.52c-.64,3.1,1.45,5,4.18,5.68a13.16,13.16,0,0,0,4.91.37l-.09,3.13a16.54,16.54,0,0,1-6.2-.39c-5.53-1.34-8-5.52-6.7-10.73,1.14-4.73,5.09-8.48,10.55-7.16s6.24,6.33,5.34,10.08a11.94,11.94,0,0,1-.58,1.78Zm8.22-1.2c.41-1.56.34-4.32-2.53-5-2.66-.64-4.36,1.5-5,3.21Z"/>
              <path class="acd50c12-1cdd-4392-9e18-88add9116ab9" d="M451.59,148.88l-1.53,4.77,4,1.29-1,3.15-4-1.29-2.37,7.37c-.65,2-.44,3.26,1.17,3.78a6.63,6.63,0,0,0,1.71.32l-1,3.25a9.79,9.79,0,0,1-3.18-.57,5.14,5.14,0,0,1-3.19-2.54c-.58-1.25-.51-2.89.19-5.08l2.53-7.85-2.4-.77,1-3.15,2.4.77,1.21-3.77Z"/>
              <path class="acd50c12-1cdd-4392-9e18-88add9116ab9" d="M457.33,166.81c-1.08,3,.72,5.17,3.32,6.22a13.29,13.29,0,0,0,4.81,1.08l-.55,3.08a16.59,16.59,0,0,1-6.08-1.28c-5.27-2.13-7.08-6.61-5.08-11.59,1.82-4.51,6.26-7.65,11.47-5.56s5.27,7.17,3.83,10.74a10.37,10.37,0,0,1-.83,1.68Zm8.31,0c.63-1.49,1-4.23-1.78-5.33-2.54-1-4.53.85-5.37,2.45Z"/>
              <path class="acd50c12-1cdd-4392-9e18-88add9116ab9" d="M474.4,168.74c.92-1.8,1.66-3.32,2.25-4.72l3.46,1.77-1,2.44.09.05a6.31,6.31,0,0,1,6.35-.15c2.72,1.39,4.64,4.59,2.12,9.53l-4.74,9.27-3.94-2,4.51-8.81c1.14-2.25,1.18-4.37-1-5.47a3.72,3.72,0,0,0-4.26.73,4.5,4.5,0,0,0-.81,1.2l-4.69,9.17-4-2Z"/>
              <path class="acd50c12-1cdd-4392-9e18-88add9116ab9" d="M498.19,195.68a12.66,12.66,0,0,1-4.69-1.86c-4.65-2.89-5.82-7.74-2.95-12.36,2.78-4.46,8-6,13.23-2.78a11.07,11.07,0,0,1,3.2,3L504.55,184a7.88,7.88,0,0,0-2.47-2.35c-2.88-1.79-5.9-.75-7.56,2-1.91,3.06-1,6,1.56,7.63a8.61,8.61,0,0,0,3.32,1.27Z"/>
              <path class="acd50c12-1cdd-4392-9e18-88add9116ab9" d="M507.3,193.6c-1.8,2.61-.61,5.19,1.65,6.85a13,13,0,0,0,4.38,2.25l-1.3,2.85a16.47,16.47,0,0,1-5.56-2.77c-4.58-3.37-5.2-8.17-2-12.49,2.88-3.91,8-5.83,12.49-2.5s3.3,8.26,1,11.36a12.7,12.7,0,0,1-1.23,1.42Zm8,2.08c1-1.28,2-3.85-.38-5.6-2.2-1.63-4.6-.31-5.81,1Z"/>
            </g>
          </g>
        </g>
      </g>
    </g>
  </g>
</svg>
